<svg xmlns="http://www.w3.org/2000/svg" data-name="Layer 1" viewBox="0 0 512 512"><path fill="#fdd402" d="M475.5,256a218.91239,218.91239,0,0,1-71.93,162.49q-6.12,5.56494-12.65,10.65991a219.54606,219.54606,0,0,1-270.43-.46q-6.375-5.00976-12.37-10.48A219.80868,219.80868,0,0,1,38.5,226.28Q39.56494,218.33,41.21,210.58C62.12,111.1499,150.34009,36.5,256,36.5c107.27,0,196.56,76.93994,215.7,178.6499q1.5,7.89,2.41,15.9701A222.25281,222.25281,0,0,1,475.5,256Z"/><path fill="#fbbf13" d="M180.49,428.68994q-6.375-5.00976-12.37-10.48A219.80868,219.80868,0,0,1,98.5,226.28Q99.56494,218.33,101.21,210.58A219.66653,219.66653,0,0,1,286.01276,38.53845,221.46,221.46,0,0,0,256,36.5c-105.65991,0-193.88,74.6499-214.79,174.08Q39.575,218.335,38.5,226.28A219.80868,219.80868,0,0,0,108.12,418.21q5.985,5.46,12.37,10.48A218.583,218.583,0,0,0,256,475.5a221.39409,221.39409,0,0,0,29.99976-2.04492A218.489,218.489,0,0,1,180.49,428.68994Z"/><circle cx="165.5" cy="194.5" r="28" fill="#74563a"/><path fill="#674b34" d="M157.5,194.5a28.005,28.005,0,0,1,18-26.15405,28,28,0,1,0,0,52.3081A28.005,28.005,0,0,1,157.5,194.5Z"/><circle cx="346.5" cy="194.5" r="28" fill="#74563a"/><path fill="#674b34" d="M338.5,194.5a28.005,28.005,0,0,1,18-26.15405,28,28,0,1,0,0,52.3081A28.005,28.005,0,0,1,338.5,194.5Z"/><path fill="#e0e0e2" d="M474.11 231.12L362.88 296.48l-2.81 1.65a7.49853 7.49853 0 0 1-7.46-13.01l3.08-1.80994L471.7 215.1499Q473.2 223.03992 474.11 231.12zM174.03 294.18994a7.50172 7.50172 0 0 1-10.22 2.84009l-12.28-6.93L38.5 226.28Q39.56494 218.33 41.21 210.58l120.61011 68.1 9.36987 5.29A7.50384 7.50384 0 0 1 174.03 294.18994z"/><path fill="#fbbf13" d="M328.296,426.43856H183.704a30,30,0,0,1-29.91511-27.74484l-5.4769-72.65218a30,30,0,0,1,29.91512-32.25515H333.77291A30,30,0,0,1,363.688,326.04154l-5.4769,72.65218A30,30,0,0,1,328.296,426.43856Z"/><path fill="#e0e0e2" d="M188.95 393.15991l-19.08 9.90015-49.38 25.62988q-6.375-5.00976-12.37-10.48l50.06994-25.99L182.05 379.84a7.50052 7.50052 0 1 1 6.9 13.31994zM403.57 418.49q-6.12 5.56494-12.65 10.65991L338.25 404.74l-13.9-6.43994a7.49421 7.49421 0 0 1 6.3-13.6001l21.48 9.95z"/><path fill="#fff" d="M328.296,406.43856H183.704a30,30,0,0,1-29.91511-27.74484l-5.4769-72.65218a30,30,0,0,1,29.91512-32.25515H333.77291A30,30,0,0,1,363.688,306.04154l-5.4769,72.65218A30,30,0,0,1,328.296,406.43856Z"/><path fill="#e0e0e2" d="M183.78894,378.69373,178.312,306.0415a30,30,0,0,1,29.91516-32.25512h-30A30,30,0,0,0,148.312,306.0415l5.47693,72.65223a29.99986,29.99986,0,0,0,29.9151,27.74475h30A29.9999,29.9999,0,0,1,183.78894,378.69373Z"/></svg>