<svg xmlns="http://www.w3.org/2000/svg" data-name="Layer 1" viewBox="0 0 512 512"><path fill="#692b7c" d="M325.51123,108.47826c12.27832-.49414,52.02759-3.65771,85.98877-34.5a133.10572,133.10572,0,0,0,35-52,125.78888,125.78888,0,0,1,18,41c13.4043,56.78467-18.56372,104.46729-26,115"/><path fill="#5e2871" d="M345.51123,108.47827c12.27832-.49414,52.02783-3.65771,85.98877-34.5a130.96932,130.96932,0,0,0,25.82129-32.33838A129.76763,129.76763,0,0,0,446.5,21.97827a133.10572,133.10572,0,0,1-35,52c-33.96094,30.84229-73.71045,34.00586-85.98877,34.5l112.98877,69.5c1.29736-1.8374,3.34229-4.80859,5.76172-8.75806Z"/><path fill="#692b7c" d="M187.74585,108.47826c-12.27832-.49414-52.02759-3.65771-85.98877-34.5a133.10572,133.10572,0,0,1-35-52,125.78888,125.78888,0,0,0-18,41c-13.4043,56.78467,18.56372,104.46729,26,115"/><path fill="#5e2871" d="M68.75708,62.97827a122.39762,122.39762,0,0,1,7.17871-21.33838,136.2749,136.2749,0,0,1-9.17871-19.66162,125.78888,125.78888,0,0,0-18,41c-13.4043,56.78467,18.56372,104.46729,26,115l14.23853-8.75806C77.54688,150.52905,57.69116,109.85693,68.75708,62.97827Z"/><circle cx="256" cy="270.522" r="219.5" fill="#93509e"/><path fill="#803091" d="M106.5,270.52173C106.5,161.209,186.41138,70.573,291,53.81128a221.05363,221.05363,0,0,0-35-2.78955c-121.22656,0-219.5,98.27344-219.5,219.5s98.27344,219.5,219.5,219.5a221.05363,221.05363,0,0,0,35-2.78955C186.41138,470.47046,106.5,379.83447,106.5,270.52173Z"/><path fill="#692b7c" d="M259.5 412.52148h-7a131.49051 131.49051 0 0 1-53.34375-11.17675A133.53758 133.53758 0 0 1 136.91113 344.835a7.49995 7.49995 0 0 1 13.07813-7.3457 118.45362 118.45362 0 0 0 55.21191 50.12793A116.58739 116.58739 0 0 0 252.5 397.52148h7a117.16379 117.16379 0 0 0 83.08594-34.41308 117.93352 117.93352 0 0 0 19.42578-25.62012 7.49957 7.49957 0 1 1 13.07617 7.34766 132.906 132.906 0 0 1-62.25684 56.50976A131.45636 131.45636 0 0 1 259.5 412.52148zM196.207 235.66309a7.49512 7.49512 0 0 1-6.585-3.89844 48.08768 48.08768 0 0 0-18.5-18.94629c-21.209-11.85352-43.06738-1.96582-45.48828-.79883a7.50039 7.50039 0 1 1-6.50781-13.51562c3.1416-1.51172 31.49121-14.32813 59.31347 1.2207a62.84651 62.84651 0 0 1 24.33887 24.835 7.50164 7.50164 0 0 1-6.57129 11.10352z"/><circle cx="185.12" cy="230.522" r="19.5" fill="#692b7c"/><path fill="#692b7c" d="M315.793,235.66309a7.50164,7.50164,0,0,1-6.57129-11.10352,62.84245,62.84245,0,0,1,24.33984-24.835c27.81641-15.55176,56.1709-2.73242,59.3125-1.2207a7.50039,7.50039,0,1,1-6.50781,13.51562c-2.42187-1.167-24.27832-11.05371-45.4873.79883a48.08443,48.08443,0,0,0-18.501,18.94629A7.499,7.499,0,0,1,315.793,235.66309Z"/><circle cx="326.88" cy="230.522" r="19.5" fill="#692b7c"/></svg>