<svg xmlns="http://www.w3.org/2000/svg" data-name="Layer 1" viewBox="0 0 512 512"><circle cx="256" cy="256" r="219.5" fill="#fdd402"/><path fill="#fbbf13" d="M96.5,256C96.5,144.9519,178.969,53.17993,286,38.54956A221.36948,221.36948,0,0,0,256,36.5C134.77344,36.5,36.5,134.77344,36.5,256S134.77344,475.5,256,475.5a221.36948,221.36948,0,0,0,30-2.04956C178.969,458.82007,96.5,367.0481,96.5,256Z"/><path fill="#74563a" d="M319,364.65234H193a7.5,7.5,0,0,1,0-15H319a7.5,7.5,0,0,1,0,15Z"/><circle cx="183" cy="214.5" r="28" fill="#74563a"/><path fill="#674b34" d="M175,214.5a28.00491,28.00491,0,0,1,18-26.15405,28,28,0,1,0,0,52.3081A28.00516,28.00516,0,0,1,175,214.5Z"/><circle cx="334" cy="214.5" r="28" fill="#74563a"/><path fill="#674b34" d="M326,214.5a28.00491,28.00491,0,0,1,18-26.15405,28,28,0,1,0,0,52.3081A28.00516,28.00516,0,0,1,326,214.5Z"/><path fill="#74563a" d="M155 169.53711c-.2207 0-.44043-.00977-.66113-.0293l-10-.88476a7.4999 7.4999 0 0 1 1.32226-14.94141l8.45606.74805 40.52832-13.39844a7.49425 7.49425 0 0 1 4.94726.084l19 7a7.49956 7.49956 0 1 1-5.18554 14.07422l-16.541-6.09375-39.51172 13.0625A7.5157 7.5157 0 0 1 155 169.53711zM306.00391 132.6543a7.50126 7.50126 0 0 1-3.04981-14.35547l45-20a7.50659 7.50659 0 0 1 7.02051.49316l16 10a7.50011 7.50011 0 0 1-7.94922 12.72071L350.4043 113.624l-41.3584 18.38184A7.46859 7.46859 0 0 1 306.00391 132.6543z"/></svg>