<svg xmlns="http://www.w3.org/2000/svg" data-name="Layer 1" viewBox="0 0 512 512"><path fill="#fdd402" d="M475.5,256c0,121.23-98.27,219.5-219.5,219.5S36.5,377.23,36.5,256A219.43965,219.43965,0,0,1,256,36.5C377.23,36.5,475.5,134.77,475.5,256Z"/><path fill="#fbbf13" d="M286,473.45a221.50712,221.50712,0,0,1-30,2.05C134.77,475.5,36.5,377.23,36.5,256A219.566,219.566,0,0,1,286,38.55005,219.50684,219.50684,0,0,0,286,473.45Z"/><path fill="#74563a" d="M369.71805,314.25863a9.999,9.999,0,0,1,13.00131,11.5352,83.91023,83.91023,0,0,1-2.6593,9.65612C374.25,352.49,362.99,367.73,347.89014,379.87012a129.90356,129.90356,0,0,1-38.08008,20.96,150.82862,150.82862,0,0,1-50.31006,8.47h-7a150.88789,150.88789,0,0,1-50.32007-8.47c-34.10986-12.08008-60.23-36.04-70.24-65.37012a83.86156,83.86156,0,0,1-2.66154-9.66986,9.999,9.999,0,0,1,13.00082-11.53427A349.47022,349.47022,0,0,0,223.2,331.41992c10.37012.9502,21.33008,1.5,32.82007,1.5h1.48c11.09009-.04,21.66992-.59985,31.7-1.54A348.49452,348.49452,0,0,0,369.71805,314.25863Z"/><path fill="#674b34" d="M232.17993,400.83008c-34.10986-12.08008-60.23-36.04-70.24-65.37012a83.8416,83.8416,0,0,1-2.66162-9.66992,9.843,9.843,0,0,1,.623-6.05566c-6.45655-1.8191-12.35791-3.679-17.62207-5.47852a9.99911,9.99911,0,0,0-13.001,11.53418,83.8416,83.8416,0,0,0,2.66162,9.66992c10.01,29.33008,36.13013,53.29,70.24,65.37012a150.88789,150.88789,0,0,0,50.32007,8.47h7c3.87793,0,7.71167-.15015,11.49951-.42774A148.96291,148.96291,0,0,1,232.17993,400.83008Z"/><path fill="#fbbf13" d="M291.5849,147.05005A37.3305,37.3305,0,0,1,320.725,133.14014H435.11493q1.5,0,2.97.11987A218.28044,218.28044,0,0,1,468.665,201.12012l-4.25,30.00976a67.54113,67.54113,0,0,1-66.83008,58.01026H362.25482a67.8366,67.8366,0,0,1-66.02978-53.4502l-12.17017-57.24A37.33171,37.33171,0,0,1,291.5849,147.05005Z"/><rect width="123" height="44" x="195.348" y="128.804" fill="#afaeb3"/><path fill="#c9e7f8" d="M395.41005,269.76464h-35.333a60,60,0,0,1-58.68635-47.51354l-12.17941-57.24323a30,30,0,0,1,29.34317-36.24323H432.94439a30,30,0,0,1,29.70268,34.21315l-7.83165,55.21314A60,60,0,0,1,395.41005,269.76464Z"/><path fill="#97cded" d="M341.39063,222.251l-12.1792-57.24317a29.99988,29.99988,0,0,1,29.343-36.24316h-40a29.99988,29.99988,0,0,0-29.343,36.24316l12.1792,57.24317a60.00017,60.00017,0,0,0,58.68652,47.51367h35.333c.76172,0,1.5188-.02393,2.27441-.05225A59.99775,59.99775,0,0,1,341.39063,222.251Z"/><path fill="#fbbf13" d="M220.5,147.05005a37.3305,37.3305,0,0,0-29.14014-13.90991H76.97q-1.5,0-2.97.11987a218.28044,218.28044,0,0,0-30.58008,67.86011l4.25,30.00976A67.54113,67.54113,0,0,0,114.5,289.14014h35.33008a67.8366,67.8366,0,0,0,66.02978-53.4502L228.03,178.45A37.33171,37.33171,0,0,0,220.5,147.05005Z"/><path fill="#58565d" d="M395.41016,277.26465h-35.333a67.83162,67.83162,0,0,1-66.02246-53.45313L281.875,166.56836a37.50054,37.50054,0,0,1,36.67969-45.30371H432.94434a37.4995,37.4995,0,0,1,37.1289,42.76562l-7.832,55.21485a67.49806,67.49806,0,0,1-66.831,58.01953Zm-76.85547-141a22.50022,22.50022,0,0,0-22.00781,27.18262l12.17968,57.24316a52.75713,52.75713,0,0,0,51.35059,41.57422h35.333a52.747,52.747,0,0,0,51.97949-45.127l7.832-55.21387a22.49994,22.49994,0,0,0-22.27734-25.65918Z"/><path fill="#3c3b41" d="M304.05469,223.81152,291.875,166.56836a37.50054,37.50054,0,0,1,36.67969-45.30371h-10A37.50054,37.50054,0,0,0,281.875,166.56836l12.17969,57.24316a67.83162,67.83162,0,0,0,66.02246,53.45313h10A67.83162,67.83162,0,0,1,304.05469,223.81152Z"/><path fill="#c9e7f8" d="M117.59,269.76464h35.333a60,60,0,0,0,58.68635-47.51354l12.17941-57.24323a30,30,0,0,0-29.34317-36.24323H80.05561a30,30,0,0,0-29.70268,34.21315l7.83165,55.21314A60,60,0,0,0,117.59,269.76464Z"/><path fill="#97cded" d="M98.18457,218.19092,90.353,162.97778a29.99983,29.99983,0,0,1,29.70263-34.21313h-40A29.99983,29.99983,0,0,0,50.353,162.97778l7.83154,55.21314a60,60,0,0,0,59.40527,51.57373h35.333c.801,0,1.5979-.02075,2.39258-.05225A59.99447,59.99447,0,0,1,98.18457,218.19092Z"/><path fill="#58565d" d="M152.92285,277.26465h-35.333a67.49806,67.49806,0,0,1-66.831-58.01953l-7.832-55.21387a37.4997,37.4997,0,0,1,37.1289-42.7666H194.44531A37.50054,37.50054,0,0,1,231.125,166.56836l-12.17969,57.24316A67.83162,67.83162,0,0,1,152.92285,277.26465Zm-72.86719-141A22.50014,22.50014,0,0,0,57.77832,161.9248l7.832,55.2129a52.747,52.747,0,0,0,51.97949,45.127h35.333a52.75713,52.75713,0,0,0,51.35059-41.57422l12.17969-57.24316a22.50023,22.50023,0,0,0-22.00782-27.18262Z"/><path fill="#3c3b41" d="M60.75879,219.24512l-7.832-55.21387a37.4997,37.4997,0,0,1,37.1289-42.7666h-10a37.4997,37.4997,0,0,0-37.1289,42.7666l7.832,55.21387a67.49806,67.49806,0,0,0,66.83105,58.01953h10a67.49806,67.49806,0,0,1-66.831-58.01953Z"/><path fill="#fff" d="M289.2,331.37988l-.7,20.42017a14.99918,14.99918,0,0,1-15,15h-36a14.99918,14.99918,0,0,1-15-15l.7-20.38013c10.37012.9502,21.33008,1.5,32.82007,1.5h1.48C268.59009,332.87988,279.16992,332.32007,289.2,331.37988Z"/><path fill="#e0e0e2" d="M242.5,351.80005l.65723-19.134c-6.8606-.24585-13.53492-.65772-19.95728-1.2461l-.7,20.38013a14.99918,14.99918,0,0,0,15,15h20A14.99918,14.99918,0,0,1,242.5,351.80005Z"/><circle cx="375.745" cy="199.265" r="28" fill="#e0ccbe"/><circle cx="137.255" cy="199.265" r="28" fill="#e0ccbe"/></svg>