<svg xmlns="http://www.w3.org/2000/svg" data-name="Layer 1" viewBox="0 0 512 512"><circle cx="256" cy="256" r="219.5" fill="#fdd402"/><path fill="#fbbf13" d="M96.5,256C96.5,144.95184,178.969,53.17993,286,38.5495A221.37921,221.37921,0,0,0,256,36.5C134.77344,36.5,36.5,134.7735,36.5,256S134.77344,475.5,256,475.5a221.37921,221.37921,0,0,0,30-2.0495C178.969,458.82007,96.5,367.04816,96.5,256Z"/><path fill="#74563a" d="M345.24052,332.47612a5.00558,5.00558,0,0,1,7.00967,5.04412A93.93106,93.93106,0,0,1,258.632,423h-5.264a93.859,93.859,0,0,1-93.61864-85.47955,5.00558,5.00558,0,0,1,7.00932-5.04413A219.03625,219.03625,0,0,0,256.015,351.56h1.113A218.94088,218.94088,0,0,0,345.24052,332.47612Z"/><path fill="#674b34" d="M245.52734,415.07385A93.73827,93.73827,0,0,1,190.181,341.37323a219.35755,219.35755,0,0,1-23.40024-8.8884,5.00812,5.00812,0,0,0-7.03157,5.03351A93.92109,93.92109,0,0,0,253.368,423h5.264a94.90741,94.90741,0,0,0,12.36719-.80652A93.25455,93.25455,0,0,1,245.52734,415.07385Z"/><path fill="#e5303e" d="M296.46509 415.06641v.00744A93.60723 93.60723 0 0 1 258.632 423h-5.264a93.64367 93.64367 0 0 1-37.84067-7.92615C216.69308 413.34448 230.40585 393.75623 255.5 393.5 281.213 393.23755 295.41644 413.51172 296.46509 415.06641zM153.12783 154.07164v0a3.28836 3.28836 0 0 1-3.948 2.45764h0A39.06837 39.06837 0 0 0 102.27448 185.728l0 .00011a39.06832 39.06832 0 0 0 29.19868 46.90528l3.20285.74518 64.41627 14.98732a12 12 0 0 0 14.40716-8.96849l14.98733-64.41627.74518-3.20285A39.06838 39.06838 0 0 0 200.03322 124.873l-.00011 0A39.06831 39.06831 0 0 0 153.12783 154.07164zM363.12916 154.07164v0a3.28836 3.28836 0 0 0 3.948 2.45764h0A39.06837 39.06837 0 0 1 413.98251 185.728l0 .00011a39.06832 39.06832 0 0 1-29.19868 46.90528l-3.20285.74518-64.41627 14.98732a12 12 0 0 1-14.40716-8.96849l-14.98732-64.41627-.74519-3.20285A39.06838 39.06838 0 0 1 316.22377 124.873l.00011 0A39.06831 39.06831 0 0 1 363.12916 154.07164z"/><path fill="#b72732" d="M287.77026 174.98114l.88611 3.80865a39.02306 39.02306 0 0 1 27.56745-23.9168l.00006-.00007a39.06832 39.06832 0 0 1 46.90527 29.19874h.00006a3.28828 3.28828 0 0 0 3.94794 2.45764h.00006a39.07225 39.07225 0 0 1 44.92139 23.0462 38.8778 38.8778 0 0 0 1.98394-23.84741V185.728a39.06839 39.06839 0 0 0-46.90533-29.19873h-.00006a3.28828 3.28828 0 0 1-3.94794-2.45764h-.00006a39.06832 39.06832 0 0 0-46.90527-29.19874l-.00006.00007a39.06833 39.06833 0 0 0-29.19873 46.90527zM122.27441 205.72809V205.728a39.06852 39.06852 0 0 1 46.9054-29.19873h.00012a3.28825 3.28825 0 0 0 3.94788-2.45764h.00012a39.06823 39.06823 0 0 1 46.90521-29.19874l.00012.00007a39.244 39.244 0 0 1 6.90149 2.30523A39.00721 39.00721 0 0 0 200.03326 124.873l-.00012-.00007a39.06819 39.06819 0 0 0-46.90521 29.19874h-.00012a3.28825 3.28825 0 0 1-3.94788 2.45764h-.00012a39.06852 39.06852 0 0 0-46.9054 29.19873v.00006a39.07284 39.07284 0 0 0 22.29725 44.6A38.89333 38.89333 0 0 1 122.27441 205.72809zM271 422.19c-.63.09-1.27.16-1.91.23-.32.04-.64.07-.96.1-.66.07-1.33.13-2 .18-.83.07-1.65.12-2.49.17-.62.03-1.25.06-1.88.08-.31.01-.62.02-.93.02-.73.02-1.47.03-2.2.03h-5.26a93.61192 93.61192 0 0 1-37.84-7.93 52.04815 52.04815 0 0 1 10.92-11.27A93.406 93.406 0 0 0 271 422.19z"/><path fill="#b72732" d="M271,422.19c-.63.09-1.27.16-1.91.23-.32.04-.64.07-.96.1-.66.07-1.33.13-2,.18-.83.07-1.65.12-2.49.17-.62.03-1.25.06-1.88.08-.31.01-.62.02-.93.02-.73.02-1.47.03-2.2.03h-5.26a93.61192,93.61192,0,0,1-37.84-7.93,52.04815,52.04815,0,0,1,10.92-11.27A93.406,93.406,0,0,0,271,422.19Z"/></svg>