<svg xmlns="http://www.w3.org/2000/svg" data-name="Layer 1" viewBox="0 0 512 512"><path fill="#058b48" d="M256.5,464.95605a7.49943,7.49943,0,0,1-7.5-7.5v-17a7.5,7.5,0,0,1,15,0v17A7.49943,7.49943,0,0,1,256.5,464.95605Z"/><circle cx="256" cy="248" r="219.5" fill="#fdd402"/><path fill="#fbbf13" d="M96.5,248C96.5,136.9519,178.969,45.17993,286,30.54956A221.36948,221.36948,0,0,0,256,28.5C134.77344,28.5,36.5,126.77344,36.5,248S134.77344,467.5,256,467.5a221.36948,221.36948,0,0,0,30-2.04956C178.969,450.82007,96.5,359.0481,96.5,248Z"/><path fill="#74563a" d="M369.44526,290.39906a10.01636,10.01636,0,0,1,13.8308,10.6477A124.91258,124.91258,0,0,1,259.5,408.5h-7A124.80426,124.80426,0,0,1,128.72261,301.0462a10.016,10.016,0,0,1,13.8286-10.64822A291.21014,291.21014,0,0,0,256.02,313.5h1.48A291.06851,291.06851,0,0,0,369.44526,290.39906Z"/><path fill="#674b34" d="M232.17993,397.96a124.71321,124.71321,0,0,1-74.00879-101.4707c-5.68667-2.03249-10.91054-4.09769-15.64153-6.10275a10.0101,10.0101,0,0,0-13.8076,10.6553A124.89919,124.89919,0,0,0,252.5,408.5h7c3.87793,0,7.71143-.187,11.49951-.53247A124.13092,124.13092,0,0,1,232.17993,397.96Z"/><path fill="#37b678" d="M192,327.5v92.00012a64,64,0,0,0,128,0V327.5a374.30748,374.30748,0,0,0-128,0Z"/><path fill="#00a653" d="M222,419.50012V327.5a374.702,374.702,0,0,1,49.00391-5.20764Q265.12549,322.05634,259,322a374.45494,374.45494,0,0,0-67,5.5v92.00012a63.98977,63.98977,0,0,0,79,62.21448A64.01254,64.01254,0,0,1,222,419.50012Z"/><path fill="#058b48" d="M263.5,447.95605h-14a26.52981,26.52981,0,0,1-26.5-26.5,7.5,7.5,0,0,1,15,0,11.51341,11.51341,0,0,0,11.5,11.5h14a11.51341,11.51341,0,0,0,11.5-11.5v-4a11.51341,11.51341,0,0,0-11.5-11.5h-14a26.52981,26.52981,0,0,1-26.5-26.5v-4a26.52982,26.52982,0,0,1,26.5-26.5h14a26.52982,26.52982,0,0,1,26.5,26.5,7.5,7.5,0,0,1-15,0,11.51341,11.51341,0,0,0-11.5-11.5h-14a11.51341,11.51341,0,0,0-11.5,11.5v4a11.51341,11.51341,0,0,0,11.5,11.5h14a26.52982,26.52982,0,0,1,26.5,26.5v4A26.52981,26.52981,0,0,1,263.5,447.95605Z"/><path fill="#058b48" d="M256.5,363.95605a7.49943,7.49943,0,0,1-7.5-7.5v-17a7.5,7.5,0,0,1,15,0v17A7.49943,7.49943,0,0,1,256.5,363.95605Z"/><path fill="#74563a" d="M353,227.95605H339a26.52981,26.52981,0,0,1-26.5-26.5,7.5,7.5,0,0,1,15,0,11.51341,11.51341,0,0,0,11.5,11.5h14a11.51341,11.51341,0,0,0,11.5-11.5v-4a11.51341,11.51341,0,0,0-11.5-11.5H339a26.52981,26.52981,0,0,1-26.5-26.5v-4a26.52982,26.52982,0,0,1,26.5-26.5h14a26.52982,26.52982,0,0,1,26.5,26.5,7.5,7.5,0,0,1-15,0,11.51341,11.51341,0,0,0-11.5-11.5H339a11.51341,11.51341,0,0,0-11.5,11.5v4a11.51341,11.51341,0,0,0,11.5,11.5h14a26.52982,26.52982,0,0,1,26.5,26.5v4A26.52981,26.52981,0,0,1,353,227.95605Z"/><path fill="#74563a" d="M346 143.95605a7.49943 7.49943 0 0 1-7.5-7.5v-17a7.5 7.5 0 0 1 15 0v17A7.49943 7.49943 0 0 1 346 143.95605zM346 244.95605a7.49943 7.49943 0 0 1-7.5-7.5v-17a7.5 7.5 0 0 1 15 0v17A7.49943 7.49943 0 0 1 346 244.95605zM173 227.95605H159a26.52981 26.52981 0 0 1-26.5-26.5 7.5 7.5 0 0 1 15 0 11.51341 11.51341 0 0 0 11.5 11.5h14a11.51341 11.51341 0 0 0 11.5-11.5v-4a11.51341 11.51341 0 0 0-11.5-11.5H159a26.52981 26.52981 0 0 1-26.5-26.5v-4a26.52982 26.52982 0 0 1 26.5-26.5h14a26.52982 26.52982 0 0 1 26.5 26.5 7.5 7.5 0 0 1-15 0 11.51341 11.51341 0 0 0-11.5-11.5H159a11.51341 11.51341 0 0 0-11.5 11.5v4a11.51341 11.51341 0 0 0 11.5 11.5h14a26.52982 26.52982 0 0 1 26.5 26.5v4A26.52981 26.52981 0 0 1 173 227.95605z"/><path fill="#74563a" d="M166 143.95605a7.49943 7.49943 0 0 1-7.5-7.5v-17a7.5 7.5 0 0 1 15 0v17A7.49943 7.49943 0 0 1 166 143.95605zM166 244.95605a7.49943 7.49943 0 0 1-7.5-7.5v-17a7.5 7.5 0 0 1 15 0v17A7.49943 7.49943 0 0 1 166 244.95605z"/></svg>