<svg xmlns="http://www.w3.org/2000/svg" enable-background="new 0 0 512 512" viewBox="0 0 512 512"><circle cx="256" cy="256" r="219.5" fill="#fdd402"/><path fill="#fbbf13" d="M96.5,256C96.5,145,179,53.2,286,38.5c-9.9-1.4-20-2-30-2C134.8,36.5,36.5,134.8,36.5,256
	S134.8,475.5,256,475.5c10,0,20.1-0.7,30-2C179,458.8,96.5,367,96.5,256z"/><path fill="#74563a" d="M374.3 214.7c-1.3 0-2.6-.3-3.7-1L323.9 187c-3.6-2.1-4.8-6.6-2.8-10.2.7-1.2 1.6-2.1 2.8-2.8l46.7-26.7c3.6-2.1 8.2-.8 10.2 2.8 2.1 3.6.8 8.2-2.8 10.2 0 0 0 0 0 0l-35.3 20.2 35.3 20.2c3.6 2.1 4.8 6.6 2.8 10.2C379.5 213.2 377 214.7 374.3 214.7L374.3 214.7zM137.7 214.7c-4.1 0-7.5-3.4-7.5-7.5 0-2.7 1.4-5.2 3.8-6.5l35.3-20.2-35.3-20.2c-3.6-2-4.9-6.6-2.8-10.2 2-3.6 6.6-4.9 10.2-2.8 0 0 0 0 0 0l46.7 26.7c3.6 2.1 4.8 6.6 2.8 10.2-.7 1.2-1.6 2.1-2.8 2.8l-46.7 26.7C140.3 214.3 139 214.7 137.7 214.7z"/><path fill="none" d="M320.8,399.5c-3.5,2-7.2,3.8-10.9,5.5c-15.9,7-33,10.6-50.3,10.5h-7c-17.3,0-34.5-3.6-50.3-10.5
	c-3.7-1.6-7.4-3.5-10.9-5.5c14.2-11.5,37.9-19,64.7-19S306.6,388,320.8,399.5z"/><path fill="#74563a" d="M329,329l-70,12l-127.1-17.4c14.9,54.3,64.3,91.9,120.6,91.9h7c1,0,2,0,3,0c0.7,0,1.4,0,2.1-0.1
	c0.3,0,0.5,0,0.8,0c0.9,0,1.7-0.1,2.6-0.2c0.1,0,0.1,0,0.2,0c0.9-0.1,1.7-0.1,2.6-0.2c0.1,0,0.1,0,0.2,0l0,0
	c51.8-4.8,95.2-41.2,109.1-91.3L329,329z"/><path fill="#674b34" d="M271,415c-3.8,0.3-7.6,0.5-11.5,0.5h-7c-56.3,0-105.7-37.6-120.6-91.9c-0.3-1.1-0.6-2.1-0.8-3.2
	c-0.4-1.6-0.8-3.2-1.1-4.8c-0.1-0.5-0.2-1.1-0.3-1.6c-0.1-0.3-0.1-0.6-0.2-1c-0.1-0.5-0.2-1-0.3-1.5c-0.1-0.7-0.2-1.4-0.3-2.1
	c-0.1-0.6-0.2-1.2-0.3-1.8c0,0,0,0,0-0.1c-0.6-5.5,3.4-10.4,8.9-11c1.7-0.2,3.4,0.1,5,0.7c4.7,2,9.9,4.1,15.6,6.1
	c1.2,11.6,4,23,8.4,33.9c12.3,30.2,35.8,54.5,65.6,67.6C244.5,410.4,257.6,413.8,271,415z"/><path fill="#e5303e" d="M309.8,405c-12.3,5.4-25.4,8.8-38.8,10l0,0c-0.1,0-0.1,0-0.2,0c-0.9,0.1-1.7,0.1-2.6,0.2c-0.1,0-0.1,0-0.2,0
	c-0.9,0.1-1.7,0.1-2.6,0.2c-0.3,0-0.5,0-0.8,0c-0.7,0-1.4,0.1-2.1,0.1c-1,0-2,0-3,0h-7c-17.3,0-34.5-3.6-50.3-10.5
	c-0.9-0.4-1.9-0.8-2.8-1.3c-0.9-0.4-1.8-0.9-2.8-1.3c-1.8-0.9-3.6-1.9-5.4-2.9c4.8-3.8,10.1-6.9,15.7-9.4c13.4-6,30.5-9.6,49-9.6
	c26.8,0,50.5,7.5,64.7,19C317.2,401.5,313.6,403.3,309.8,405z"/><path fill="#fff" d="M369.4,297.4c5.1-2.2,11,0.2,13.1,5.3c0.7,1.7,1,3.5,0.7,5.3c-0.7,5.3-1.8,10.5-3.2,15.6l0,0
	c-78.5,37.1-169.6,37.1-248.1,0h0c-1.4-5.1-2.5-10.3-3.2-15.6c-0.8-5.5,3-10.6,8.5-11.3c1.8-0.3,3.7,0,5.3,0.7
	c35.9,15.2,74.5,23.1,113.5,23.1h1.5C296,320.3,334,312.4,369.4,297.4z"/><path fill="#e0e0e2" d="M166.6,337.4c-1.7-0.5-3.3-1.1-4.9-1.6c-0.1,0-0.2-0.1-0.3-0.1c-0.8-0.3-1.7-0.6-2.5-0.9
	c-0.9-0.3-1.9-0.7-2.8-1c-1.5-0.5-2.9-1.1-4.3-1.6c-1.1-0.4-2.1-0.8-3.1-1.2c-0.9-0.4-1.8-0.7-2.6-1c-0.1,0-0.1,0-0.2-0.1
	c-0.9-0.4-1.9-0.8-2.8-1.1c-1.8-0.8-3.6-1.5-5.3-2.3c-0.4-0.2-0.8-0.4-1.3-0.6c-1.7-0.7-3.2-1.5-4.7-2.2h0c-0.3-1.2-0.6-2.4-0.9-3.6
	c-0.1-0.2-0.1-0.5-0.2-0.7c-0.3-1.2-0.6-2.4-0.8-3.7c-0.2-0.8-0.3-1.5-0.4-2.3c-0.1-0.6-0.2-1.2-0.3-1.8c-0.1-0.7-0.2-1.4-0.3-2.1
	c-0.1-0.6-0.2-1.2-0.3-1.8v-0.1c-0.6-5.5,3.4-10.4,8.9-11c1.7-0.2,3.4,0.1,5,0.7c0.4,0.2,0.8,0.3,1.2,0.5c0.4,0.2,0.8,0.3,1.2,0.5
	c1.7,0.7,3.5,1.4,5.4,2.2c0.5,0.2,1.1,0.4,1.6,0.6c0.2,0.1,0.5,0.2,0.7,0.3c0.3,0.1,0.6,0.2,0.9,0.4c0.1,0,0.1,0,0.2,0.1
	c0.4,0.1,0.8,0.3,1.2,0.4c0.3,0.1,0.5,0.2,0.8,0.3c0.8,0.3,1.6,0.6,2.3,0.9c0.7,6.8,2,13.6,3.8,20.2
	C163.2,328.3,164.8,332.9,166.6,337.4z"/><path fill="#b72732" d="M271,415c-3.8,0.3-7.6,0.5-11.5,0.5h-7c-17.3,0-34.5-3.6-50.3-10.5c-0.9-0.4-1.9-0.8-2.8-1.3
	c-0.9-0.4-1.8-0.9-2.8-1.3c-1.8-0.9-3.6-1.9-5.4-2.9c4.8-3.8,10.1-6.9,15.7-9.4C225.5,404.2,247.7,412.9,271,415z"/></svg>