<svg xmlns="http://www.w3.org/2000/svg" data-name="Layer 1" viewBox="0 0 512 512"><circle cx="256" cy="256" r="219.5" fill="#fdd402"/><path fill="#fbbf13" d="M96.5,256C96.5,144.9519,178.969,53.17993,286,38.54956A221.36948,221.36948,0,0,0,256,36.5C134.7735,36.5,36.5,134.77344,36.5,256S134.7735,475.5,256,475.5a221.36948,221.36948,0,0,0,30-2.04956C178.969,458.82007,96.5,367.0481,96.5,256Z"/><circle cx="256" cy="355" r="47.5" fill="#74563a"/><path fill="#674b34" d="M238.5,355A47.50949,47.50949,0,0,1,271,309.93164a47.49988,47.49988,0,1,0,0,90.137A47.51,47.51,0,0,1,238.5,355Z"/><path fill="#74563a" d="M165.5 230A35.54028 35.54028 0 0 1 130 194.5a7.5 7.5 0 0 1 15 0 20.5 20.5 0 0 0 41 0 7.5 7.5 0 0 1 15 0A35.54028 35.54028 0 0 1 165.5 230zM346.5 230A35.54028 35.54028 0 0 1 311 194.5a7.5 7.5 0 0 1 15 0 20.5 20.5 0 0 0 41 0 7.5 7.5 0 0 1 15 0A35.54028 35.54028 0 0 1 346.5 230z"/><path fill="#fbbf13" d="M243.75586 169.8501H267a7.5 7.5 0 0 1 0 15H222.375a7.49994 7.49994 0 0 1-4.68506-13.35645zM314.756 117.3501h23.24414a7.5 7.5 0 0 1 0 15h-44.625a7.49994 7.49994 0 0 1-4.68506-13.35645z"/><path fill="#4ebaea" d="M267 174.8501H222.375a7.49994 7.49994 0 0 1-4.68506-13.35645l27.9292-22.34375H222.375a7.5 7.5 0 0 1 0-15H267a7.49994 7.49994 0 0 1 4.68506 13.35645l-27.9292 22.34375H267a7.5 7.5 0 0 1 0 15zM338 124.8501H293.375a7.49994 7.49994 0 0 1-4.68506-13.35645l27.9292-22.34375H293.375a7.5 7.5 0 0 1 0-15H338a7.49994 7.49994 0 0 1 4.68506 13.35645l-27.9292 22.34375H338a7.5 7.5 0 0 1 0 15zM429 50.8501H384.375a7.49994 7.49994 0 0 1-4.68506-13.35645l27.9292-22.34375H384.375a7.5 7.5 0 0 1 0-15H429a7.49994 7.49994 0 0 1 4.68506 13.35645L405.75586 35.8501H429a7.5 7.5 0 0 1 0 15z"/></svg>