<svg xmlns="http://www.w3.org/2000/svg" data-name="Layer 1" viewBox="0 0 512 512"><circle cx="256" cy="256" r="219.5" fill="#fdd402"/><path fill="#fbbf13" d="M96.5,256C96.5,144.95184,178.969,53.17993,286,38.5495A221.37921,221.37921,0,0,0,256,36.5C134.77344,36.5,36.5,134.7735,36.5,256S134.77344,475.5,256,475.5a221.37921,221.37921,0,0,0,30-2.0495C178.969,458.82007,96.5,367.04816,96.5,256Z"/><path fill="#74563a" d="M374.32813 214.67041a7.46325 7.46325 0 0 1-3.71387-.98975l-46.66992-26.66894a7.49948 7.49948 0 0 1 0-13.02344l46.66992-26.66894a7.49974 7.49974 0 1 1 7.4414 13.02343L342.78125 180.5l35.27441 20.15723a7.50091 7.50091 0 0 1-3.72753 14.01318zM137.67188 214.67041a7.50091 7.50091 0 0 1-3.72754-14.01318L169.21875 180.5l-35.27441-20.15723a7.49974 7.49974 0 1 1 7.4414-13.02343l46.66992 26.66894a7.49948 7.49948 0 0 1 0 13.02344l-46.66992 26.66894A7.46057 7.46057 0 0 1 137.67188 214.67041zM369.44526 283.39906a10.01636 10.01636 0 0 1 13.8308 10.6477A124.91258 124.91258 0 0 1 259.5 401.5h-7A124.80426 124.80426 0 0 1 128.72261 294.0462a10.016 10.016 0 0 1 13.8286-10.64822A291.21014 291.21014 0 0 0 256.02 306.5h1.48A291.06851 291.06851 0 0 0 369.44526 283.39906z"/><path fill="#674b34" d="M242.17993,390.96a124.65814,124.65814,0,0,1-73.59472-97.971c-9.8424-3.10644-18.56684-6.43007-26.05555-9.6032a10.01108,10.01108,0,0,0-13.80769,10.6558A124.8992,124.8992,0,0,0,252.5,401.5h7a126.20051,126.20051,0,0,0,16.49878-1.0788A124.008,124.008,0,0,1,242.17993,390.96Z"/><path fill="#e5303e" d="M310,330.5v106a54,54,0,0,1-108,0v-106Z"/><path fill="#b72732" d="M232,436.5v-106H202v106a53.99158,53.99158,0,0,0,69,51.87207A54.01657,54.01657,0,0,1,232,436.5Z"/><path fill="#b72732" d="M263.5,330.5v80a7.5,7.5,0,0,1-15,0v-80Z"/></svg>