<svg xmlns="http://www.w3.org/2000/svg" data-name="Layer 1" viewBox="0 0 512 512"><circle cx="256" cy="256" r="219.5" fill="#fdd402"/><path fill="#fbbf13" d="M96.5,256C96.5,144.9519,178.969,53.17993,286,38.54956A221.36948,221.36948,0,0,0,256,36.5C134.7735,36.5,36.5,134.77344,36.5,256S134.7735,475.5,256,475.5a221.36948,221.36948,0,0,0,30-2.04956C178.969,458.82007,96.5,367.0481,96.5,256Z"/><circle cx="160.5" cy="224.652" r="56.5" fill="#fff"/><path fill="#e0e0e2" d="M134,224.6521a56.5131,56.5131,0,0,1,41.5-54.47144,56.5,56.5,0,1,0,0,108.94288A56.51277,56.51277,0,0,1,134,224.6521Z"/><circle cx="351.5" cy="224.652" r="56.5" fill="#fff"/><path fill="#e0e0e2" d="M325,224.6521a56.5131,56.5131,0,0,1,41.5-54.47144,56.5,56.5,0,1,0,0,108.94288A56.51277,56.51277,0,0,1,325,224.6521Z"/><circle cx="160.5" cy="224.652" r="17" fill="#74563a"/><path fill="#674b34" d="M153.5,224.6521a17.00525,17.00525,0,0,1,12-16.24988,16.99994,16.99994,0,1,0,0,32.49988A17.00529,17.00529,0,0,1,153.5,224.6521Z"/><circle cx="351.5" cy="224.652" r="17" fill="#74563a"/><path fill="#674b34" d="M344.5,224.6521a17.00525,17.00525,0,0,1,12-16.24988,16.99994,16.99994,0,1,0,0,32.49988A17.00529,17.00529,0,0,1,344.5,224.6521Z"/><path fill="#74563a" d="M122.32324 154.08105a7.5 7.5 0 0 1-5.89892-12.125c2.15039-2.74511 21.91064-26.74414 53.75195-25.10644A62.86 62.86 0 0 1 202.981 128.37988a7.49958 7.49958 0 1 1-8.61914 12.27539 47.23383 47.23383 0 0 0-24.96729-8.82519c-24.26025-1.27246-39.50342 17.25879-41.16162 19.376A7.48653 7.48653 0 0 1 122.32324 154.08105zM399.67676 160.08105a7.48653 7.48653 0 0 1-5.90967-2.875c-1.65771-2.11718-16.9043-20.64257-41.16113-19.376a47.234 47.234 0 0 0-24.96778 8.82519 7.49958 7.49958 0 1 1-8.61914-12.27539 62.86008 62.86008 0 0 1 32.80518-11.53027c31.82178-1.6416 51.60107 22.36133 53.75146 25.10644a7.5 7.5 0 0 1-5.89892 12.125zM255.98877 371.68359q-1.33813 0-2.67481-.0332a108.36184 108.36184 0 0 1-23.63964-3.22363 7.5 7.5 0 1 1 3.65136-14.54883 93.04744 93.04744 0 0 0 45.3501 0 7.49966 7.49966 0 1 1 3.64844 14.54883A108.28633 108.28633 0 0 1 255.98877 371.68359z"/></svg>