<svg xmlns="http://www.w3.org/2000/svg" data-name="Layer 1" viewBox="0 0 512 512"><circle cx="256" cy="256" r="219.5" fill="#fdd402"/><path fill="#fbbf13" d="M96.5,256C96.5,144.9519,178.969,53.17993,286,38.54956A221.36948,221.36948,0,0,0,256,36.5C134.77344,36.5,36.5,134.77344,36.5,256S134.77344,475.5,256,475.5a221.36948,221.36948,0,0,0,30-2.04956C178.969,458.82007,96.5,367.0481,96.5,256Z"/><path fill="#74563a" d="M193.5 202a7.49943 7.49943 0 0 1-7.5-7.5 20.5 20.5 0 0 0-41 0 7.5 7.5 0 0 1-15 0 35.5 35.5 0 0 1 71 0A7.49943 7.49943 0 0 1 193.5 202zM374.5 202a7.49943 7.49943 0 0 1-7.5-7.5 20.5 20.5 0 0 0-41 0 7.5 7.5 0 0 1-15 0 35.5 35.5 0 0 1 71 0A7.49943 7.49943 0 0 1 374.5 202z"/><path fill="#e5303e" d="M208.60013,371.41957l-74.95331,74.95332a54,54,0,0,1-76.36754-76.36753L132.2326,295.052,165,338Z"/><path fill="#b72732" d="M87.2793,446.3728a53.99975,53.99975,0,0,1,0-76.36743l57.93652-57.93652L132.23267,295.052,57.2793,370.00537a54.00137,54.00137,0,0,0,53.18383,90.06055A53.7422,53.7422,0,0,1,87.2793,446.3728Z"/><path fill="#b72732" d="M113.84766,397.30469A7.5,7.5,0,0,1,108.544,384.501l46-46a7.50058,7.50058,0,0,1,10.60742,10.60742l-46,46A7.481,7.481,0,0,1,113.84766,397.30469Z"/><path fill="#74563a" d="M259.5,386h-7a132.41724,132.41724,0,0,1-127.792-97.36523,7.49971,7.49971,0,1,1,14.46484-3.96875A117.418,117.418,0,0,0,252.5,371h7a117.58526,117.58526,0,0,0,113.32617-86.34277,7.50014,7.50014,0,1,1,14.4668,3.96484A132.43161,132.43161,0,0,1,259.5,386Z"/></svg>