<svg xmlns="http://www.w3.org/2000/svg" data-name="Layer 1" viewBox="0 0 512 512"><circle cx="256" cy="256" r="219.5" fill="#fdd402"/><path fill="#fbbf13" d="M96.5,256C96.5,144.9519,178.969,53.17993,286,38.54956A221.36948,221.36948,0,0,0,256,36.5C134.77344,36.5,36.5,134.77344,36.5,256S134.77344,475.5,256,475.5a221.36948,221.36948,0,0,0,30-2.04956C178.969,458.82007,96.5,367.0481,96.5,256Z"/><circle cx="165.5" cy="194.5" r="28" fill="#74563a"/><path fill="#674b34" d="M157.5,194.5a28.005,28.005,0,0,1,18-26.15405,28,28,0,1,0,0,52.3081A28.00533,28.00533,0,0,1,157.5,194.5Z"/><circle cx="346.5" cy="194.5" r="28" fill="#74563a"/><path fill="#674b34" d="M338.5,194.5a28.0046,28.0046,0,0,1,18-26.15405,28,28,0,1,0,0,52.3081A28.005,28.005,0,0,1,338.5,194.5Z"/><path fill="#fff" d="M389.5,335.5a39.41,39.41,0,0,1-.72,7.5,39.00554,39.00554,0,0,1-38.28,31.5h-189a39,39,0,1,1,0-78h189a38.955,38.955,0,0,1,39,39Z"/><path fill="#e0e0e2" d="M153.22,343a39.42411,39.42411,0,0,1,0-15,39.00525,39.00525,0,0,1,38.28-31.5h-30A39.00525,39.00525,0,0,0,123.22,328a39,39,0,0,0,38.28,46.5h30A39.01988,39.01988,0,0,1,153.22,343Z"/><path fill="#74563a" d="M389.5,335.5a39.41,39.41,0,0,1-.72,7.5H123.22a39.42411,39.42411,0,0,1,0-15H388.78A39.41,39.41,0,0,1,389.5,335.5Z"/><path fill="#674b34" d="M152.5,335.5a39.41,39.41,0,0,0,.72,7.5h-30a39.42411,39.42411,0,0,1,0-15h30A39.41,39.41,0,0,0,152.5,335.5Z"/><path fill="#674b34" d="M152.5,335.5a39.41,39.41,0,0,0,.72,7.5h-30a39.42411,39.42411,0,0,1,0-15h30A39.41,39.41,0,0,0,152.5,335.5Z"/></svg>