<svg xmlns="http://www.w3.org/2000/svg" data-name="Layer 1" viewBox="0 0 512 512"><path fill="#fdd402" d="M474.21,256c0,121.23-98.27,219.5-219.5,219.5-121.22,0-219.5-98.27-219.5-219.5S133.49,36.5,254.71,36.5A219.30371,219.30371,0,0,1,474.21,256Z"/><path fill="#fbbf13" d="M279.71,474.07007a221.75615,221.75615,0,0,1-25,1.42993c-121.22,0-219.5-98.27-219.5-219.5A219.48686,219.48686,0,0,1,279.71,37.92993a219.53224,219.53224,0,0,0-194.5,217.76V256C85.21,368.77,170.26,461.65991,279.71,474.07007Z"/><path fill="#fff" d="M368.15519,300.3991A10.01637,10.01637,0,0,1,381.986,311.04679,124.97977,124.97977,0,0,1,378.77,326.64q-1.57508,5.72993-3.66992,11.24A124.00735,124.00735,0,0,1,365.46,357.75,124.87346,124.87346,0,0,1,258.21,418.5h-7a125.10772,125.10772,0,0,1-116.88989-80.62q-2.10022-5.49-3.67017-11.2301a124.95248,124.95248,0,0,1-3.21731-15.60369,10.016,10.016,0,0,1,13.8286-10.64822A291.21019,291.21019,0,0,0,254.73,323.5h1.48A291.06959,291.06959,0,0,0,368.15519,300.3991Z"/><path fill="#e0e0e2" d="M230.89014,407.96A125.50358,125.50358,0,0,1,173.96,357.74a123.8824,123.8824,0,0,1-9.63989-19.86q-2.10022-5.49-3.67017-11.2301a124.9322,124.9322,0,0,1-3.21728-15.60376,10.0627,10.0627,0,0,1,.30346-4.25293c-6.00854-2.12646-11.5166-4.29345-16.47485-6.39526a10.01594,10.01594,0,0,0-13.82861,10.64819,124.9322,124.9322,0,0,0,3.21728,15.60376q1.57507,5.7301,3.67017,11.2301A123.8824,123.8824,0,0,0,143.96,357.74,124.82944,124.82944,0,0,0,251.21,418.5h7c3.87793,0,7.71167-.187,11.49951-.53247A124.12941,124.12941,0,0,1,230.89014,407.96Z"/><path fill="#74563a" d="M375.1001,337.88A124.00735,124.00735,0,0,1,365.46,357.75a324.31777,324.31777,0,0,1-109.1499,19.67993H254.76A324.185,324.185,0,0,1,143.96,357.74a123.8824,123.8824,0,0,1-9.63989-19.86,6.63889,6.63889,0,0,1,1.03979.34,306.24612,306.24612,0,0,0,238.7002,0A6.63318,6.63318,0,0,1,375.1001,337.88Z"/><path fill="#fbbf13" d="M188.6499,173.64a9.97523,9.97523,0,0,0-1.41992,9.19L202.74,228.04a9.9965,9.9965,0,0,1-12.63013,12.73L144.79,225.59a9.98857,9.98857,0,0,0-9.18994,1.49l-38.19019,28.7301a9.96517,9.96517,0,0,1-12.2-.12012,9.85729,9.85729,0,0,1-3.81982-7.96l.43994-47.8a10.00434,10.00434,0,0,0-4.26-8.27l-26.23-18.3999A218.23687,218.23687,0,0,1,69.97,137.40991L86.77,132.12a9.982,9.982,0,0,0,6.56006-6.6L101.52,98.79A220.26392,220.26392,0,0,1,125.95,78.22l19.25,27.01L152.79,115.87a10.02081,10.02081,0,0,0,8.31006,4.20007l47.79-.8a10.00336,10.00336,0,0,1,8.2,15.94995Z"/><path fill="#4ebaea" d="M125.04409,56.952l27.74378,38.91924a10,10,0,0,0,8.30829,4.194l47.78911-.79075a10,10,0,0,1,8.20229,15.94919l-28.44109,38.41261a10,10,0,0,0-1.4213,9.19766l15.5197,45.20579a10,10,0,0,1-12.63393,12.72941l-45.32135-15.17894a10,10,0,0,0-9.18669,1.4905L97.40549,235.81013a10,10,0,0,1-16.01049-8.082l.431-47.79371a10,10,0,0,0-4.2564-8.27648l-39.127-27.45a10,10,0,0,1,2.73891-17.72435l45.5877-14.3592a10,10,0,0,0,6.5561-6.60564l14.01559-45.69451A10,10,0,0,1,125.04409,56.952Z"/><path fill="#2e99d4" d="M121.82593,189.93445a9.99983,9.99983,0,0,0-4.25635-8.27649L78.44263,154.208a10,10,0,0,1,2.73877-17.72437L126.769,122.12439a10.00006,10.00006,0,0,0,6.55616-6.60559L143.3938,82.693,125.044,56.9519a10,10,0,0,0-17.70313,2.87232L93.3252,105.5188a10.00006,10.00006,0,0,1-6.55616,6.60559L41.1814,126.48364A10,10,0,0,0,38.44263,144.208l39.127,27.45a9.99983,9.99983,0,0,1,4.25635,8.27649l-.43091,47.7937a10,10,0,0,0,16.0105,8.08191l24.17065-18.17944Z"/><path fill="#fbbf13" d="M458.6499,174.66992l-24.22,16.99a10.00434,10.00434,0,0,0-4.26,8.27l.43994,47.80005a10.0058,10.0058,0,0,1-16.01977,8.08008L376.3999,227.08a9.98857,9.98857,0,0,0-9.18994-1.49l-45.31982,15.18A9.9965,9.9965,0,0,1,309.26,228.04L324.77,182.83a9.97523,9.97523,0,0,0-1.41992-9.19l-28.44019-38.42a10.00336,10.00336,0,0,1,8.2-15.94995l47.79.8A10.02081,10.02081,0,0,0,359.21,115.87l25.96-36.41a219.66426,219.66426,0,0,1,26.43994,23.04l7.06006,23.02a9.982,9.982,0,0,0,6.56006,6.6L438.79,136.39A219.266,219.266,0,0,1,458.6499,174.66992Z"/><path fill="#4ebaea" d="M386.95591,56.952,359.21213,95.87123a10,10,0,0,1-8.30829,4.194l-47.78911-.79075a10,10,0,0,0-8.20229,15.94919l28.44109,38.41261a10,10,0,0,1,1.4213,9.19766l-15.5197,45.20579a10,10,0,0,0,12.63393,12.72941l45.32135-15.17894a10,10,0,0,1,9.18669,1.4905l38.19741,28.72947a10,10,0,0,0,16.01049-8.082l-.431-47.79371a10,10,0,0,1,4.2564-8.27648l39.127-27.45a10,10,0,0,0-2.73891-17.72435l-45.5877-14.3592a10,10,0,0,1-6.5561-6.60564L404.65914,59.82426A10,10,0,0,0,386.95591,56.952Z"/><path fill="#2e99d4" d="M354.7749,182.83386a10.00036,10.00036,0,0,0-1.42138-9.19763l-28.44117-38.4126a10.00011,10.00011,0,0,1,8.2024-15.94922l47.78906.79078a9.99986,9.99986,0,0,0,8.30835-4.194l22.81933-32.01111-7.37231-24.03589a10,10,0,0,0-17.70313-2.87232L359.21216,95.87122a9.99986,9.99986,0,0,1-8.30835,4.194l-47.78906-.79078a10.00011,10.00011,0,0,0-8.2024,15.94922l28.44117,38.4126a10.00036,10.00036,0,0,1,1.42138,9.19763l-15.51977,45.20581a10,10,0,0,0,12.634,12.72937l22.44263-7.51635Z"/><path fill="#674b34" d="M181.55005,368.95A321.73116,321.73116,0,0,1,143.96,357.74a123.8824,123.8824,0,0,1-9.63989-19.86,6.63889,6.63889,0,0,1,1.03979.34,301.307,301.307,0,0,0,34.53028,12.2q1.91967,3.735,4.06982,7.32007A123.8196,123.8196,0,0,0,181.55005,368.95Z"/><path fill="#674b34" d="M181.55005,368.95A321.73116,321.73116,0,0,1,143.96,357.74a123.8824,123.8824,0,0,1-9.63989-19.86,6.63889,6.63889,0,0,1,1.03979.34,301.307,301.307,0,0,0,34.53028,12.2q1.91967,3.735,4.06982,7.32007A123.8196,123.8196,0,0,0,181.55005,368.95Z"/></svg>