<svg xmlns="http://www.w3.org/2000/svg" data-name="Layer 1" viewBox="0 0 512 512"><path fill="#fdd402" d="M475.5,256c0,121.23-98.27,219.5-219.5,219.5S36.5,377.23,36.5,256,134.77,36.5,256,36.5A219.42158,219.42158,0,0,1,475.29,246.37988Q475.5,251.16516,475.5,256Z"/><path fill="#fbbf13" d="M96.5,256c0-111.061,82.48047-202.83667,189.52734-217.45459A221.409,221.409,0,0,0,256,36.5C134.77,36.5,36.5,134.77,36.5,256S134.77,475.5,256,475.5a221.407,221.407,0,0,0,30-2.04932C178.96643,458.821,96.5,367.05151,96.5,256Z"/><path fill="#e0e0e2" d="M475.29,246.37988,378.37,149.46,335.9,106.99l28.53-28.53,8.35-8.3501A220.4631,220.4631,0,0,1,416.03,105.78q2.47494,2.64,4.87994,5.36011A220.31441,220.31441,0,0,1,442.04,139.46q3.09,4.905,5.91,10A218.14173,218.14173,0,0,1,475.29,246.37988Z"/><circle cx="165.5" cy="194.5" r="28" fill="#74563a"/><path fill="#674b34" d="M157.5,194.5a28.00491,28.00491,0,0,1,18-26.15405,28,28,0,1,0,0,52.3081A28.00516,28.00516,0,0,1,157.5,194.5Z"/><circle cx="346.5" cy="194.5" r="28" fill="#74563a"/><path fill="#674b34" d="M338.5,194.5a28.00491,28.00491,0,0,1,18-26.15405,28,28,0,1,0,0,52.3081A28.00516,28.00516,0,0,1,338.5,194.5Z"/><path fill="#74563a" d="M184.81689,369.5625a7.5,7.5,0,0,1-5.74023-12.32227A130.85543,130.85543,0,0,1,222.043,323.68359l6.28613-3.07812a131.80223,131.80223,0,0,1,101.30029-6.15918A7.50036,7.50036,0,0,1,324.729,328.624a117.14463,117.14463,0,0,0-42.97949-6.3916,115.93368,115.93368,0,0,0-46.82373,11.84473l-6.28613,3.07812a115.95582,115.95582,0,0,0-38.07471,29.7295A7.48539,7.48539,0,0,1,184.81689,369.5625Z"/><path fill="#fbbf13" d="M435.37012,149.45652H76.63a220.65231,220.65231,0,0,1,65.26-61H370.10986A220.65308,220.65308,0,0,1,435.37012,149.45652Z"/><path fill="#d9d8da" d="M447.95,149.46H378.37L345.9,116.99l28.53-28.53h15.68a219.72813,219.72813,0,0,1,30.8,22.68018A220.31441,220.31441,0,0,1,442.04,139.46Q445.13,144.365,447.95,149.46Z"/><path fill="#e0e0e2" d="M435.37012,129.45652H76.63a220.65231,220.65231,0,0,1,65.26-61H370.10986A220.65308,220.65308,0,0,1,435.37012,129.45652Z"/><path fill="#fbbf13" d="M201.91,68.46a220.60476,220.60476,0,0,0-65.28,61h-60c.54-.77,1.09-1.53,1.64-2.29s1.11-1.51,1.67-2.26c.48-.6499.97-1.3,1.46-1.93994q1.815-2.38514,3.71-4.73c1.61-1.99,3.25-3.96,4.92-5.88989.17-.19019.33-.38013.49-.56006.62-.71,1.24-1.41016,1.86-2.11011.63-.68994,1.25-1.38989,1.89-2.07983.63-.69019,1.27-1.37012,1.91-2.05s1.29-1.36011,1.94-2.03c.65-.68018,1.3-1.3501,1.96-2.01.66-.67017,1.32-1.33008,1.99-1.98.6-.6001,1.21-1.19019,1.82-1.77,1.41-1.36011,2.85-2.7,4.29-4.02q2.07-1.875,4.17-3.71c.01,0,.02-.01.03-.02,1.42-1.23,2.84-2.42993,4.28-3.61987,1.45-1.19019,2.9-2.3501,4.38-3.5.02-.02.05-.04.07-.06006.72-.56006,1.45-1.12012,2.18-1.67017.74-.57007,1.49-1.12988,2.25-1.68994.75-.56006,1.51-1.11011,2.27-1.65991.76-.55,1.53-1.09009,2.29-1.63013,1.5-1.05,3.02-2.09009,4.54-3.10986a.93911.93911,0,0,0,.18-.12012c.76-.5,1.53-1,2.29-1.49.54-.3501,1.08-.68994,1.62-1.04,1.05-.65991,2.1-1.31006,3.16-1.96Z"/><path fill="#d9d8da" d="M201.91,68.46a220.60476,220.60476,0,0,0-65.28,61h-60c.54-.77,1.09-1.53,1.64-2.29s1.11-1.51,1.67-2.26c.48-.6499.97-1.3,1.46-1.93994q1.815-2.38514,3.71-4.73c1.61-1.99,3.25-3.96,4.92-5.88989.17-.19019.33-.38013.49-.56006.62-.71,1.24-1.41016,1.86-2.11011.63-.68994,1.25-1.38989,1.89-2.07983.63-.69019,1.27-1.37012,1.91-2.05s1.29-1.36011,1.94-2.03c.65-.68018,1.3-1.3501,1.96-2.01.66-.67017,1.32-1.33008,1.99-1.98.6-.6001,1.21-1.19019,1.82-1.77,1.41-1.36011,2.85-2.7,4.29-4.02q2.07-1.875,4.17-3.71c.01,0,.02-.01.03-.02,1.42-1.23,2.84-2.42993,4.28-3.61987,1.45-1.18018,2.9-2.3501,4.38-3.5.02-.02.05-.04.07-.06006.72-.56006,1.45-1.12012,2.18-1.67017.74-.57007,1.49-1.12988,2.25-1.68994.75-.56006,1.51-1.11011,2.27-1.65991.76-.55,1.53-1.09009,2.29-1.63013,1.5-1.05,3.02-2.09009,4.54-3.10986a.93911.93911,0,0,0,.18-.12012c.76-.5,1.53-1,2.29-1.49.54-.3501,1.08-.68994,1.62-1.04,1.05-.65991,2.1-1.31006,3.16-1.96Z"/></svg>