<svg xmlns="http://www.w3.org/2000/svg" data-name="Layer 1" viewBox="0 0 512 512"><path fill="#fdd402" d="M475.5,256a219.5,219.5,0,1,1-439,0C36.5,134.77,134.77,36.5,256,36.5S475.5,134.77,475.5,256Z"/><path fill="#fbbf13" d="M96.5,256C96.5,144.9519,178.969,53.17993,286,38.54956A221.36948,221.36948,0,0,0,256,36.5C134.77344,36.5,36.5,134.77344,36.5,256S134.77344,475.5,256,475.5a221.36948,221.36948,0,0,0,30-2.04956C178.969,458.82007,96.5,367.0481,96.5,256Z"/><path fill="#74563a" d="M196.207,221.1416a7.49832,7.49832,0,0,1-6.58447-3.898,47.23053,47.23053,0,0,0-18.501-18.94629c-21.21142-11.85644-43.06494-1.96631-45.4873-.7998a7.50017,7.50017,0,1,1-6.50879-13.51465c3.14062-1.5127,31.4917-14.33057,59.31347,1.22022a62.85235,62.85235,0,0,1,24.33887,24.83349,7.50241,7.50241,0,0,1-6.5708,11.105Z"/><circle cx="185.12" cy="216" r="19.5" fill="#74563a"/><path fill="#674b34" d="M175.62,216a19.4903,19.4903,0,0,1,14.5-18.82861,19.50014,19.50014,0,1,0,0,37.65722A19.4904,19.4904,0,0,1,175.62,216Z"/><path fill="#74563a" d="M315.793,221.1416a7.50241,7.50241,0,0,1-6.5708-11.105,62.85275,62.85275,0,0,1,24.33984-24.834c27.81983-15.55078,56.1709-2.73243,59.3125-1.21973a7.50017,7.50017,0,0,1-6.50879,13.51465c-2.42187-1.167-24.27832-11.05567-45.48633.79932a47.23086,47.23086,0,0,0-18.502,18.94677A7.49873,7.49873,0,0,1,315.793,221.1416Z"/><circle cx="326.88" cy="216" r="19.5" fill="#74563a"/><path fill="#674b34" d="M317.38,216a19.49031,19.49031,0,0,1,14.5-18.82861,19.50014,19.50014,0,1,0,0,37.65722A19.49042,19.49042,0,0,1,317.38,216Z"/><path fill="#fbbf13" d="M422.47,399.07007A220.311,220.311,0,0,1,363.13,447.63L220.75,472.67993A218.49893,218.49893,0,0,1,117.58008,426.36L107.62,369.73a15.00189,15.00189,0,0,1,12.18-17.37L390.64,304.7A14.998,14.998,0,0,1,408.01,316.87Z"/><rect width="305" height="136" x="114.5" y="307.5" fill="#3c3b41" rx="15" transform="rotate(-9.98 267 375.5)"/><path fill="#2c2b2d" d="M155.99231,449.13013,137.62256,344.734a15.00013,15.00013,0,0,1,12.17358-17.37256l243.6958-42.881a15.05933,15.05933,0,0,0-2.85675.21973L119.79614,332.35742A15.00019,15.00019,0,0,0,107.62256,349.73l18.36975,104.39624a14.99983,14.99983,0,0,0,17.37244,12.17346l27.14331-4.77624A14.9988,14.9988,0,0,1,155.99231,449.13013Z"/><path fill="#fff" d="M173.3291 424.86621a7.50205 7.50205 0 0 1-7.37793-6.20117l-9.53125-54.168a7.50021 7.50021 0 0 1 14.77344-2.59961l9.53125 54.168a7.5043 7.5043 0 0 1-7.39551 8.80078zM203.86035 419.49414a7.50205 7.50205 0 0 1-7.37793-6.20117l-9.53174-54.168a7.50021 7.50021 0 0 1 14.77344-2.59961l9.53174 54.168a7.5043 7.5043 0 0 1-7.39551 8.80078z"/><path fill="#fff" d="M159.43115 415.127a7.50063 7.50063 0 0 1-1.291-14.88769l54.168-9.53125a7.50021 7.50021 0 1 1 2.5996 14.77344l-54.168 9.53125A7.56923 7.56923 0 0 1 159.43115 415.127zM154.05908 384.5957a7.50063 7.50063 0 0 1-1.291-14.88769l54.16748-9.53125a7.50021 7.50021 0 0 1 2.59961 14.77344l-54.16748 9.53125A7.56923 7.56923 0 0 1 154.05908 384.5957zM249.17285 394.25879a7.50205 7.50205 0 0 1-7.37793-6.20117l-6.58545-37.42481a7.50021 7.50021 0 0 1 14.77344-2.59961l6.58545 37.42481a7.5043 7.5043 0 0 1-7.39551 8.80078z"/><circle cx="253.514" cy="411.38" r="7.5" fill="#fff"/><path fill="#fff" d="M295.21289,407.40332A20.09084,20.09084,0,0,1,280.1626,400.625a7.50009,7.50009,0,0,1,11.19629-9.98242,5.205,5.205,0,0,0,4.81152,1.67578l9.22949-1.625a5.22012,5.22012,0,0,0,4.23731-6.0459l-.46387-2.63574a5.22325,5.22325,0,0,0-6.04736-4.23828l-9.2295,1.625a20.25044,20.25044,0,0,1-23.41894-16.41114l-.46436-2.63671a20.24468,20.24468,0,0,1,16.41016-23.41895l9.23193-1.624a20.09608,20.09608,0,0,1,15.10743,3.35449,7.5005,7.5005,0,0,1-8.6084,12.28516,5.15982,5.15982,0,0,0-3.89844-.86622l-9.2334,1.624a5.22622,5.22622,0,0,0-4.23584,6.0459l.46387,2.63672a5.22463,5.22463,0,0,0,6.04687,4.2373l9.2295-1.625a20.25085,20.25085,0,0,1,23.41943,16.41113l.46387,2.63575A20.22041,20.22041,0,0,1,307.999,405.4668l-9.22949,1.625A20.53989,20.53989,0,0,1,295.21289,407.40332Z"/><path fill="#fff" d="M292.33008 351.00684a7.502 7.502 0 0 1-7.37793-6.20118l-1.97217-11.209a7.50021 7.50021 0 0 1 14.77344-2.59961l1.97217 11.209a7.50431 7.50431 0 0 1-7.39551 8.80079zM304.04834 417.60254a7.50243 7.50243 0 0 1-7.37793-6.20117l-1.97217-11.209a7.50021 7.50021 0 0 1 14.77344-2.59961l1.97217 11.209a7.50431 7.50431 0 0 1-7.39551 8.80078zM369.731 398.43262a7.50483 7.50483 0 0 1-7.16309-9.73242 64.338 64.338 0 0 0-10.24951-58.2334 7.50015 7.50015 0 0 1 11.94434-9.07422 79.33626 79.33626 0 0 1 12.62646 71.76855A7.50313 7.50313 0 0 1 369.731 398.43262z"/></svg>