<svg xmlns="http://www.w3.org/2000/svg" data-name="Layer 1" viewBox="0 0 512 512"><circle cx="256" cy="256" r="219.5" fill="none"/><circle cx="165.5" cy="177.5" r="28" fill="none"/><circle cx="346.5" cy="177.5" r="28" fill="none"/><path fill="none" d="M384.5,291.5a125.12511,125.12511,0,0,1-63.75,108.99q-5.31006,3-10.93994,5.47A124.4802,124.4802,0,0,1,259.5,416.5h-7a124.52787,124.52787,0,0,1-50.32007-10.54q-5.61-2.47485-10.91992-5.46a124.77521,124.77521,0,0,1-63.76-109,291.23534,291.23534,0,0,0,128.52,30h1.48A291.16558,291.16558,0,0,0,384.5,291.5Z"/><path fill="none" d="M384.5 291.5a125.37631 125.37631 0 0 1-4.44 33.14l-.01.01a290.161 290.161 0 0 1-248.1 0h-.01a125.3945 125.3945 0 0 1-4.44-33.15 291.23618 291.23618 0 0 0 128.52 30h1.48A291.16582 291.16582 0 0 0 384.5 291.5zM320.75 400.49q-5.31006 3-10.93994 5.47A124.4802 124.4802 0 0 1 259.5 416.5h-7a124.52787 124.52787 0 0 1-50.32007-10.54q-5.61-2.47485-10.91992-5.46c14.18994-11.48 37.89-19 64.74-19S306.55005 389.02 320.75 400.49z"/><circle cx="256" cy="256" r="219.5" fill="#fdd402"/><path fill="#fbbf13" d="M96.5,256C96.5,144.95184,178.969,53.17993,286,38.5495A221.37921,221.37921,0,0,0,256,36.5C134.77344,36.5,36.5,134.7735,36.5,256S134.77344,475.5,256,475.5a221.37921,221.37921,0,0,0,30-2.0495C178.969,458.82007,96.5,367.04816,96.5,256Z"/><circle cx="165.5" cy="177.5" r="28" fill="#74563a"/><path fill="#674b34" d="M157.5,177.5a28.005,28.005,0,0,1,18-26.15405,28,28,0,1,0,0,52.3081A28.005,28.005,0,0,1,157.5,177.5Z"/><circle cx="346.5" cy="177.5" r="28" fill="#74563a"/><path fill="#674b34" d="M338.5,177.5a28.005,28.005,0,0,1,18-26.15405,28,28,0,1,0,0,52.3081A28.005,28.005,0,0,1,338.5,177.5Z"/><path fill="#74563a" d="M380.06,324.64A124.93075,124.93075,0,0,1,259.5,416.5h-7a124.91761,124.91761,0,0,1-120.56-91.85"/><path fill="#e5303e" d="M191.27319,400.491c3.53479,1.99,7.16968,3.82336,10.90674,5.469A124.52787,124.52787,0,0,0,252.5,416.5h7a124.4802,124.4802,0,0,0,50.31006-10.54q5.61016-2.46936,10.9209-5.4668C306.53674,389.0166,282.83911,381.5,256.00171,381.5,229.16455,381.5,205.46484,389.01978,191.27319,400.491Z"/><path fill="#674b34" d="M271,415.97c-3.79.34-7.62.53-11.5.53h-7a124.52737,124.52737,0,0,1-50.32-10.54c-.94-.41-1.86-.84-2.78-1.27-.93-.44-1.84-.88-2.75-1.34-.77-.38-1.53-.77-2.28-1.18-.75-.4-1.51-.81-2.25-1.22-.29-.15-.57-.3-.85-.46a70.8707,70.8707,0,0,1,15.68-9.39A124.34787,124.34787,0,0,0,271,415.97Z"/><path fill="#fff" d="M369.44526,298.39906a10.01636,10.01636,0,0,1,13.8308,10.6477A124.96775,124.96775,0,0,1,380.06,324.64l-.01.01a290.161,290.161,0,0,1-248.1,0h-.01a124.94329,124.94329,0,0,1-3.21739-15.60376,10.016,10.016,0,0,1,13.8286-10.64822A291.21014,291.21014,0,0,0,256.02,321.5h1.48A291.06851,291.06851,0,0,0,369.44526,298.39906Z"/><path fill="#674b34" d="M271,415.97c-3.79.34-7.62.53-11.5.53h-7a124.91772,124.91772,0,0,1-120.56006-91.85l16.75571.39429c1.28,4.68,16.07437,8.86572,17.87442,13.30573A125.47308,125.47308,0,0,0,232.18,405.96,124.21472,124.21472,0,0,0,271,415.97Z"/><path fill="#b72732" d="M271,415.97c-3.79.34-7.62.53-11.5.53h-7a124.52737,124.52737,0,0,1-50.32-10.54c-.94-.41-1.86-.84-2.78-1.27-.93-.44-1.84-.88-2.75-1.34-.77-.38-1.53-.77-2.28-1.18-.75-.4-1.51-.81-2.25-1.22-.29-.15-.57-.3-.85-.46a70.8707,70.8707,0,0,1,15.68-9.39A124.34787,124.34787,0,0,0,271,415.97Z"/><path fill="#e0e0e2" d="M166.57007,338.35A288.10414,288.10414,0,0,1,131.95,324.65h-.01a125.75917,125.75917,0,0,1-3.22-15.6,10.01991,10.01991,0,0,1,13.83008-10.65c4.96,2.1,10.47,4.27,16.48,6.39a10.04206,10.04206,0,0,0-.31006,4.26,125.75917,125.75917,0,0,0,3.22,15.6A122.51381,122.51381,0,0,0,166.57007,338.35Z"/></svg>