<svg xmlns="http://www.w3.org/2000/svg" data-name="Layer 1" viewBox="0 0 512 512"><circle cx="256" cy="256" r="219.5" fill="#fdd402"/><path fill="#fbbf13" d="M96.5,256C96.5,144.95184,178.969,53.17993,286,38.5495A221.37921,221.37921,0,0,0,256,36.5C134.77344,36.5,36.5,134.7735,36.5,256S134.77344,475.5,256,475.5a221.37921,221.37921,0,0,0,30-2.0495C178.969,458.82007,96.5,367.04816,96.5,256Z"/><path fill="#74563a" d="M330.04229,348.70214c-11.36765-13.04185-29.15907-21.94454-47.24979-25.39113-24.5483-4.67687-52.58284-3.01634-75.78085,6.76361-26.11371,11.00918-49.69178,41.92558-30.26808,69.534,4.09431,5.81951,10.52316,7.62446,16.25587,4.64808,15.157-7.86935,40.06227-17.35038,70.57769-14.37772a126.96956,126.96956,0,0,1,54.88266,19.10284c7.22063,4.51243,16.0602.5444,19.88282-9.011C346.52325,379.5218,341.607,361.97,330.04229,348.70214Z"/><path fill="#674b34" d="M237.01172,330.07458a120.493,120.493,0,0,1,34.00757-8.46936c-21.45008-2.23181-44.44532.22223-64.00757,8.46936-26.11377,11.00922-49.6919,41.9256-30.26807,69.534,4.09424,5.81952,10.52307,7.62445,16.25586,4.64807a139.97576,139.97576,0,0,1,12.90064-5.89178C188.02856,371.0777,211.28931,340.91876,237.01172,330.07458Z"/><circle cx="160.5" cy="217.942" r="56.5" fill="#fff"/><path fill="#e0e0e2" d="M134,217.9422a56.51283,56.51283,0,0,1,41.5-54.47137,56.5,56.5,0,1,0,0,108.94281A56.51286,56.51286,0,0,1,134,217.9422Z"/><circle cx="160.5" cy="217.942" r="17" fill="#74563a"/><path fill="#674b34" d="M153.5,217.9422a17.00519,17.00519,0,0,1,12-16.24994,17,17,0,1,0,0,32.49988A17.00519,17.00519,0,0,1,153.5,217.9422Z"/><circle cx="351.5" cy="217.942" r="56.5" fill="#fff"/><path fill="#e0e0e2" d="M325,217.94226a56.51293,56.51293,0,0,1,41.5-54.4715,56.5,56.5,0,1,0,0,108.94294A56.51291,56.51291,0,0,1,325,217.94226Z"/><circle cx="351.5" cy="217.942" r="17" fill="#74563a"/><path fill="#674b34" d="M344.5,217.9422a17.00519,17.00519,0,0,1,12-16.24994,17,17,0,1,0,0,32.49988A17.00519,17.00519,0,0,1,344.5,217.9422Z"/><path fill="#74563a" d="M122.32324 147.37109a7.50057 7.50057 0 0 1-5.89941-12.12548c2.15039-2.74415 21.92676-26.76954 53.75293-25.105A62.85176 62.85176 0 0 1 202.98145 121.669a7.5 7.5 0 1 1-8.61915 12.27636 47.22981 47.22981 0 0 0-24.96777-8.82519c-24.25976-1.26416-39.5039 17.25879-41.16211 19.37549A7.489 7.489 0 0 1 122.32324 147.37109zM399.67676 153.37109a7.4861 7.4861 0 0 1-5.90918-2.87548c-1.6582-2.1167-16.90235-20.645-41.16113-19.37549a47.23009 47.23009 0 0 0-24.96875 8.82519 7.5 7.5 0 1 1-8.61915-12.27636 62.852 62.852 0 0 1 32.80567-11.52832c31.87207-1.67481 51.60254 22.35986 53.75195 25.105a7.50056 7.50056 0 0 1-5.89941 12.12548z"/></svg>