<svg xmlns="http://www.w3.org/2000/svg" data-name="Layer 1" viewBox="0 0 512 512"><path fill="#fdd402" d="M485.54,256a218.48846,218.48846,0,0,1-40.91016,127.64014l-.00976.00976A219.55426,219.55426,0,0,1,266.04,475.5c-121.22,0-219.5-98.27-219.5-219.5s98.28-219.5,219.5-219.5A219.46866,219.46866,0,0,1,485.54,256Z"/><path fill="#fbbf13" d="M106.54346,256c0-111.0481,82.46924-202.82007,189.5-217.45044a221.36681,221.36681,0,0,0-30-2.04956c-121.22632,0-219.5,98.27344-219.5,219.5s98.27368,219.5,219.5,219.5a221.36681,221.36681,0,0,0,30-2.04956C189.0127,458.82007,106.54346,367.0481,106.54346,256Z"/><path fill="#74563a" d="M269.044 405.5h-7a132.419 132.419 0 0 1-127.793-97.36523 7.49971 7.49971 0 1 1 14.46484-3.96875A117.4198 117.4198 0 0 0 262.044 390.5h7a117.58529 117.58529 0 0 0 113.32617-86.34277 7.50013 7.50013 0 1 1 14.46679 3.96484A132.43159 132.43159 0 0 1 269.044 405.5zM200.044 201.5a7.49943 7.49943 0 0 1-7.5-7.5 20.5 20.5 0 0 0-41 0 7.5 7.5 0 0 1-15 0 35.5 35.5 0 0 1 71 0A7.49944 7.49944 0 0 1 200.044 201.5zM381.044 201.5a7.49943 7.49943 0 0 1-7.5-7.5 20.5 20.5 0 0 0-41 0 7.5 7.5 0 0 1-15 0 35.5 35.5 0 0 1 71 0A7.49944 7.49944 0 0 1 381.044 201.5z"/><path fill="#e5303e" d="M57.57263,111.89912h0a2.12565,2.12565,0,0,0,2.64885-1.42142v0A25.25463,25.25463,0,0,1,91.6921,93.59l.00006,0a25.25459,25.25459,0,0,1,16.88772,31.47055l-.61372,2.03516L95.6229,168.02732a7.75706,7.75706,0,0,1-9.66631,5.18714L45.02495,160.8712l-2.03516-.61372A25.25464,25.25464,0,0,1,26.10206,128.7869l0-.00007A25.25459,25.25459,0,0,1,57.57263,111.89912Z"/><path fill="#b72732" d="M65.0249,150.87109l-2.03515-.61377a25.25453,25.25453,0,0,1-16.8877-31.47045h0a25.20024,25.20024,0,0,1,4.05029-7.96753A25.26464,25.26464,0,0,0,26.102,128.78687h0a25.25453,25.25453,0,0,0,16.8877,31.47045l2.03515.61377,40.93164,12.34327a7.75726,7.75726,0,0,0,9.66651-5.187l2.19165-7.26806Z"/><path fill="#fbbf13" d="M445.55005,129.65991l-27.74,25.54a7.759,7.759,0,0,1-10.96-.45l-28.9502-31.44995L376.46,121.73A25.25513,25.25513,0,0,1,395.03,79.37012c.46,0,.92993.00976,1.38989.03979A220.21826,220.21826,0,0,1,445.55005,129.65991Z"/><path fill="#e5303e" d="M413.61654,67.52094v0a2.12567,2.12567,0,0,0,3.00358.12413l0,0a25.25465,25.25465,0,0,1,35.685,1.47474l0,.00006a25.2546,25.2546,0,0,1-1.47474,35.685l-1.56388,1.43974-31.45287,28.95638a7.75706,7.75706,0,0,1-10.96078-.453L377.89653,103.2951l-1.43974-1.56387a25.25464,25.25464,0,0,1,1.47474-35.685l.00006-.00005A25.2546,25.2546,0,0,1,413.61654,67.52094Z"/><path fill="#b72732" d="M397.89648,103.29517l-1.43969-1.564a25.25422,25.25422,0,0,1,1.47485-35.68481v-.00025a25.20108,25.20108,0,0,1,7.103-4.61035,25.25422,25.25422,0,0,0-27.103,4.61035v.00025a25.25422,25.25422,0,0,0-1.47485,35.68481l1.43969,1.564L406.853,134.74805a7.757,7.757,0,0,0,10.96069.45288l5.11816-4.71192Z"/><path fill="#fbbf13" d="M444.62012,383.6499a220.59719,220.59719,0,0,1-35.67017,38.96l-3.05-3.30981L404.46,417.73a25.2547,25.2547,0,1,1,37.16016-34.21A2.12969,2.12969,0,0,0,444.62012,383.6499Z"/><path fill="#e5303e" d="M441.61654,363.52094v0a2.12567,2.12567,0,0,0,3.00358.12413l0,0a25.25465,25.25465,0,0,1,35.685,1.47474l0,.00006a25.2546,25.2546,0,0,1-1.47474,35.685l-1.56388,1.43974-31.45287,28.95638a7.75706,7.75706,0,0,1-10.96078-.453L405.89653,399.2951l-1.43974-1.56387a25.25464,25.25464,0,0,1,1.47474-35.685l.00006,0A25.2546,25.2546,0,0,1,441.61654,363.52094Z"/><path fill="#b72732" d="M425.89648,399.29517l-1.43969-1.564a25.25422,25.25422,0,0,1,1.47485-35.68481v-.00025a25.20108,25.20108,0,0,1,7.103-4.61035,25.25422,25.25422,0,0,0-27.103,4.61035v.00025a25.25422,25.25422,0,0,0-1.47485,35.68481l1.43969,1.564L434.853,430.74805a7.757,7.757,0,0,0,10.96069.45288l5.11816-4.71192Z"/></svg>