<svg xmlns="http://www.w3.org/2000/svg" data-name="Layer 1" viewBox="0 0 512 512"><circle cx="256" cy="241" r="219.5" fill="#fdd402"/><path fill="#fbbf13" d="M96.5,241C96.5,129.95184,178.969,38.17993,286,23.5495A221.37921,221.37921,0,0,0,256,21.5C134.77344,21.5,36.5,119.7735,36.5,241S134.77344,460.5,256,460.5a221.37921,221.37921,0,0,0,30-2.0495C178.969,443.82007,96.5,352.04816,96.5,241Z"/><circle cx="165.5" cy="162.5" r="28" fill="#74563a"/><path fill="#674b34" d="M157.5,162.5a28.00478,28.00478,0,0,1,18-26.15405,28,28,0,1,0,0,52.3081A28.00478,28.00478,0,0,1,157.5,162.5Z"/><path fill="#74563a" d="M374.5 200a7.49974 7.49974 0 0 1-7.5-7.5 20.5 20.5 0 0 0-41 0 7.5 7.5 0 0 1-15 0 35.5 35.5 0 0 1 71 0A7.49974 7.49974 0 0 1 374.5 200zM369.44526 283.39906a10.01636 10.01636 0 0 1 13.8308 10.6477A124.91258 124.91258 0 0 1 259.5 401.5h-7A124.80426 124.80426 0 0 1 128.72261 294.0462a10.016 10.016 0 0 1 13.8286-10.64822A291.21014 291.21014 0 0 0 256.02 306.5h1.48A291.06851 291.06851 0 0 0 369.44526 283.39906z"/><path fill="#674b34" d="M232.17993,390.96A124.71295,124.71295,0,0,1,158.17114,289.4892c-5.68668-2.03247-10.91056-4.09765-15.64155-6.10271a10.01011,10.01011,0,0,0-13.80759,10.6553A124.8992,124.8992,0,0,0,252.5,401.5h7c3.87793,0,7.71167-.187,11.49951-.53241A124.13276,124.13276,0,0,1,232.17993,390.96Z"/><path fill="#e5303e" d="M310,330.5v106a54,54,0,0,1-108,0v-106Z"/><path fill="#b72732" d="M232,436.5v-106H202v106a53.99158,53.99158,0,0,0,69,51.87207A54.01657,54.01657,0,0,1,232,436.5Z"/><path fill="#b72732" d="M263.5,330.5v80a7.5,7.5,0,0,1-15,0v-80Z"/></svg>