<svg xmlns="http://www.w3.org/2000/svg" data-name="Layer 1" viewBox="0 0 512 512"><path fill="#fdd402" d="M475.5,256A219.29211,219.29211,0,0,1,256,475.5C134.77,475.5,36.5,377.23,36.5,256S134.77,36.5,256,36.5,475.5,134.77,475.5,256Z"/><path fill="#fbbf13" d="M96.5,256C96.5,144.9519,178.969,53.17993,286,38.54956A221.36948,221.36948,0,0,0,256,36.5C134.7735,36.5,36.5,134.77344,36.5,256S134.7735,475.5,256,475.5a221.36948,221.36948,0,0,0,30-2.04956C178.969,458.82007,96.5,367.0481,96.5,256Z"/><path fill="#74563a" d="M375.71436,175.4209a7.50377,7.50377,0,0,1-7.19873-5.40918c-.75-2.582-7.99219-25.4502-30.98243-33.3125a48.08658,48.08658,0,0,0-26.458-1.10938,7.50009,7.50009,0,1,1-3.42676-14.60351,62.84872,62.84872,0,0,1,34.73926,1.51953c30.15869,10.31445,39.55957,39.97266,40.53222,43.32031a7.50646,7.50646,0,0,1-7.20556,9.59473Z"/><path fill="#74563a" d="M375.71436 175.4209a7.50377 7.50377 0 0 1-7.19873-5.40918c-.75-2.582-7.99219-25.4502-30.98243-33.3125a48.08658 48.08658 0 0 0-26.458-1.10938 7.50009 7.50009 0 1 1-3.42676-14.60351 62.84872 62.84872 0 0 1 34.73926 1.51953c30.15869 10.31445 39.55957 39.97266 40.53222 43.32031a7.50646 7.50646 0 0 1-7.20556 9.59473zM357.24512 222.19238a7.49988 7.49988 0 0 1-6.86475-4.47265c-.73389-1.66114-7.63086-16.32618-23.67773-19.52051a31.77122 31.77122 0 0 0-17.75489 1.63086 7.50037 7.50037 0 0 1-5.33105-14.02149 47.23568 47.23568 0 0 1 26.01562-2.32031c23.47608 4.67383 33.41407 25.78125 34.46973 28.17285a7.50331 7.50331 0 0 1-6.85693 10.53125zM136.28564 175.4209a7.50646 7.50646 0 0 1-7.20556-9.59473c.97265-3.34765 10.37353-33.00586 40.5332-43.32031a62.84524 62.84524 0 0 1 34.73828-1.51953 7.50009 7.50009 0 1 1-3.42676 14.60351 48.08294 48.08294 0 0 0-26.457 1.10938c-22.99121 7.8623-30.23339 30.73047-30.98339 33.3125A7.50379 7.50379 0 0 1 136.28564 175.4209z"/><path fill="#74563a" d="M136.28564 175.4209a7.50646 7.50646 0 0 1-7.20556-9.59473c.97265-3.34765 10.37353-33.00586 40.5332-43.32031a62.84524 62.84524 0 0 1 34.73828-1.51953 7.50009 7.50009 0 1 1-3.42676 14.60351 48.08294 48.08294 0 0 0-26.457 1.10938c-22.99121 7.8623-30.23339 30.73047-30.98339 33.3125A7.50379 7.50379 0 0 1 136.28564 175.4209zM154.75488 222.19238a7.50331 7.50331 0 0 1-6.85693-10.53125c1.05566-2.3916 10.99365-23.499 34.4707-28.17285a47.19743 47.19743 0 0 1 26.01465 2.32031 7.50037 7.50037 0 0 1-5.33105 14.02149 31.78839 31.78839 0 0 0-17.75391-1.63086c-16.04785 3.19433-22.94482 17.85937-23.67871 19.52051A7.502 7.502 0 0 1 154.75488 222.19238zM324.2726 369.67852c-12.82533 11.61137-31.54191 18.35542-49.91274 19.64612-24.92839 1.75143-52.57191-3.20122-74.45577-15.64677-24.63439-14.00979-44.40488-47.4893-21.863-72.61638 4.75157-5.29647 11.34833-6.33125 16.69035-2.7 14.124 9.60068 37.7385 21.95058 68.3916 22.59467a126.96963 126.96963 0 0 0 56.75139-12.50217c7.70207-3.63008 16.01245 1.352 18.6824 11.29124C344.27062 341.01578 337.32023 357.8659 324.2726 369.67852z"/><path fill="#674b34" d="M229.90411,373.67773c-23.44561-13.33349-42.483-44.30273-24.83276-68.92285-3.86328-2.16259-7.32031-4.34082-10.34-6.39355-5.342-3.63111-11.93878-2.59619-16.69036,2.70019-22.54181,25.127-2.77131,58.60645,21.86309,72.61621,21.88385,12.44581,49.52735,17.39844,74.45575,15.647,1.62458-.11426,3.25116-.28638,4.87683-.48535C261.90619,387.00244,244.60535,382.03857,229.90411,373.67773Z"/><path fill="#fbbf13" d="M376.97,439.17993a218.07176,218.07176,0,0,1-70.66,30.52,71.33981,71.33981,0,0,1-14-19.91992c-6.68-14-9.29-29.73-9.1-45.24.15-11.49,2.36-28.51,13.41-34.64014,6.42-3.56006,20.76-5.8561,20.76,1.40015,0,23.09125-.93,30.78,4.05,47.09985,2.3,7.55,10.09,12.18018,17.79,13.93994C351.85,435.23,365.21,434.1001,376.97,439.17993Z"/><path fill="#4ebaea" d="M296.61519,349.90285c-11.04064,6.123-13.25971,23.1438-13.40181,34.63379-.19194,15.51807,2.41321,31.24,9.09926,45.24536,12.93066,27.08594,40.08357,43.03516,69.9799,36.15381,12.17172-2.80151,29.70175-10.13525,31.17-24.47974.6937-6.77783-3.23111-13.39111-8.59524-17.59155-13.41229-10.50269-30.09055-7.968-45.64945-11.5271-7.697-1.7605-15.48475-6.38647-17.789-13.93921-4.97907-16.322,14.97459-33.97778-4.05237-47.095C311.40463,347.1863,303.0446,346.33718,296.61519,349.90285Z"/><path fill="#2e99d4" d="M312.31262,429.782c-6.686-14.00537-9.2912-29.72729-9.09924-45.24536.13873-11.21777,2.262-27.70166,12.63653-34.1748-5.81408-3.27686-13.33471-3.731-19.23474-.459-11.04059,6.123-13.2597,23.1438-13.40179,34.63379-.192,15.51807,2.41321,31.24,9.09924,45.24536,12.38428,25.94141,37.81659,41.65259,66.208,36.8899C338.55658,463.2063,321.69183,449.42871,312.31262,429.782Z"/></svg>