<svg xmlns="http://www.w3.org/2000/svg" data-name="Layer 1" viewBox="0 0 512 512"><path fill="#74563a" d="M377.59,334.59a122.44172,122.44172,0,0,1-8.99,19.96c-26.59,10.34-67.37,22.66-111.06,22.88H256.3c-44.56,0-85.96-12.42-112.9-22.88a123.29387,123.29387,0,0,1-8.99-19.96c.04.02.08.03.12.05,23.76,10.49,71.36,28.05,122.93,27.79,50.26-.26,96.76-17.52,120.01-27.79C377.51,334.62,377.55,334.61,377.59,334.59Z"/><circle cx="256" cy="256" r="219.5" fill="#fdd402"/><path fill="#fbbf13" d="M96.5,256C96.5,144.95184,178.969,53.17993,286,38.5495A221.37921,221.37921,0,0,0,256,36.5C134.7735,36.5,36.5,134.7735,36.5,256S134.7735,475.5,256,475.5a221.37921,221.37921,0,0,0,30-2.0495C178.969,458.82007,96.5,367.04816,96.5,256Z"/><path fill="#74563a" d="M193.5 202a7.50006 7.50006 0 0 1-7.5-7.5 20.5 20.5 0 0 0-41 0 7.5 7.5 0 0 1-15 0 35.5 35.5 0 0 1 71 0A7.50006 7.50006 0 0 1 193.5 202zM374.5 202a7.50006 7.50006 0 0 1-7.5-7.5 20.5 20.5 0 0 0-41 0 7.5 7.5 0 0 1-15 0 35.5 35.5 0 0 1 71 0A7.50006 7.50006 0 0 1 374.5 202z"/><path fill="#fff" d="M369.44525,300.39906a10.01636,10.01636,0,0,1,13.83081,10.6477A124.96775,124.96775,0,0,1,380.06,326.64q-1.11,4.03492-2.47,7.95a122.44172,122.44172,0,0,1-8.99,19.96A124.87049,124.87049,0,0,1,259.5,418.5h-7a125.11285,125.11285,0,0,1-118.09-83.91c-.91-2.61-1.73-5.25-2.47-7.94a124.94382,124.94382,0,0,1-3.21739-15.60377,10.016,10.016,0,0,1,13.8286-10.64822A291.21007,291.21007,0,0,0,256.02,323.5h1.48A291.06819,291.06819,0,0,0,369.44525,300.39906Z"/><path fill="#e0e0e2" d="M232.18,407.96a125.45623,125.45623,0,0,1-58.78-53.41,123.29387,123.29387,0,0,1-8.99-19.96c-.91-2.61-1.73-5.25-2.47-7.94a125.00819,125.00819,0,0,1-3.7688-20.16076c-5.68669-2.03247-10.91061-4.09766-15.64164-6.10273A10.01011,10.01011,0,0,0,128.722,311.04178,124.94231,124.94231,0,0,0,131.94,326.65c.74,2.69,1.56,5.33,2.47,7.94a123.29387,123.29387,0,0,0,8.99,19.96A124.84383,124.84383,0,0,0,252.5,418.5h7c3.878,0,7.71161-.187,11.49939-.53241A124.13167,124.13167,0,0,1,232.18,407.96Z"/><path fill="#e0e0e2" d="M181.36,366.97a367.55186,367.55186,0,0,1-37.96-12.42,123.29387,123.29387,0,0,1-8.99-19.96c.04.02.08.03.12.05a351.6652,351.6652,0,0,0,35.46,13.38c1.07,2.22,2.21,4.39,3.41,6.53A124.70711,124.70711,0,0,0,181.36,366.97Z"/><path fill="#74563a" d="M377.59,334.59a122.44172,122.44172,0,0,1-8.99,19.96c-26.59,10.34-67.37,22.66-111.06,22.88H256.3c-44.56,0-85.96-12.42-112.9-22.88a123.29387,123.29387,0,0,1-8.99-19.96c.04.02.08.03.12.05,23.76,10.49,71.36,28.05,122.93,27.79,50.26-.26,96.76-17.52,120.01-27.79C377.51,334.62,377.55,334.61,377.59,334.59Z"/><path fill="#674b34" d="M181.36,366.97a367.55186,367.55186,0,0,1-37.96-12.42,123.29387,123.29387,0,0,1-8.99-19.96c.04.02.08.03.12.05a351.6652,351.6652,0,0,0,35.46,13.38c1.07,2.22,2.21,4.39,3.41,6.53A124.70711,124.70711,0,0,0,181.36,366.97Z"/></svg>