<svg xmlns="http://www.w3.org/2000/svg" data-name="Layer 1" viewBox="0 0 512 512"><defs><radialGradient id="a" cx="253.5" cy="256" r="219.5" gradientUnits="userSpaceOnUse"><stop offset=".006" stop-color="#fdd402"/><stop offset=".859" stop-color="#fdd402"/><stop offset="1" stop-color="#fdd402"/></radialGradient></defs><path fill="url(#a)" d="M473,256c0,121.23-98.27,219.5-219.5,219.5S34,377.23,34,256A218.49975,218.49975,0,0,1,80.09009,121.42q3.40465-4.38,7.03-8.59c1.30981-1.52,2.63989-3.03,4-4.51q3.95983-4.38008,8.17993-8.53a219.97,219.97,0,0,1,59.61987-41.92.0098.0098,0,0,0,.01-.01,219.33491,219.33491,0,0,1,249.49,42.64q4.21509,4.2,8.17017,8.61c1.35986,1.49,2.67993,3,3.98,4.52q3.61487,4.24494,7.02,8.67A218.4997,218.4997,0,0,1,473,256Z"/><path fill="#fbbf13" d="M94,256a218.586,218.586,0,0,1,53.12012-143.17q5.81982-6.76493,12.17993-13.04A218.40221,218.40221,0,0,1,283.49951,38.54291,219.088,219.088,0,0,0,99.30005,99.79q-6.36,6.27-12.17993,13.04A218.586,218.586,0,0,0,34,256c0,121.23,98.27,219.5,219.5,219.5a221.39592,221.39592,0,0,0,30-2.04932C176.46631,458.82111,94,367.05157,94,256Z"/><path fill="#74563a" d="M257.19531 387.66846a123.3052 123.3052 0 0 1-59.77246-15.65235 132.56773 132.56773 0 0 1-50.417-49.76416 7.50007 7.50007 0 1 1 12.98828-7.5039c21.81445 37.75683 62.64453 60.40625 104.0166 57.69824 49.54785-3.24072 78.11524-40.751 83.33887-48.23779a7.49962 7.49962 0 1 1 12.30078 8.583c-5.91211 8.47413-38.26367 50.93457-94.66113 54.62256Q261.09277 387.66894 257.19531 387.66846zM393.96387 232.502a7.50226 7.50226 0 0 1-6.94043-4.65234 46.50525 46.50525 0 0 0-86.04688 0 7.49995 7.49995 0 0 1-13.875-5.69922 61.50507 61.50507 0 0 1 113.79688 0 7.50436 7.50436 0 0 1-6.93457 10.35156zM212.96387 232.502a7.50226 7.50226 0 0 1-6.94043-4.65234 46.50525 46.50525 0 0 0-86.04688 0 7.49995 7.49995 0 0 1-13.875-5.69922 61.50507 61.50507 0 0 1 113.79688 0 7.50436 7.50436 0 0 1-6.93457 10.35156z"/><path fill="#fbbf13" d="M420.57007,113.63c-1.3-1.52-2.62012-3.03-3.98-4.52-.09009.02-.19019.03-.28.05q-3.87012.69-7.89014,1.34C366.64014,117.29,312.92993,121,256,121c-58.89014,0-114.34009-3.97-156.69995-11.21-1.21-.21-2.42017-.42-3.61011-.63-1.56006-.28-3.08984-.56-4.56982-.84-1.36011,1.48-2.69019,2.99-4,4.51q-3.63025,4.20006-7.03,8.59c2.28.48,4.62988.95,7.03,1.41q2.75976.525,5.62988,1.04C136.42993,131.69,194.3999,136,256,136s119.57007-4.31,163.25-12.13q.65991-.12,1.32007-.24,3.59985-.66,7.02-1.33Q424.18506,117.875,420.57007,113.63Z"/><path fill="#4ebaea" d="M469.92993,54.63c-12.05-5.1-29.09985-9.64-50.67993-13.5C375.57007,33.31,317.6001,29,256,29S136.42993,33.31,92.75,41.13c-21.58008,3.86-38.62988,8.4-50.67993,13.5C36.49,57,19.5,64.19,19.5,77.5S36.49,98,42.07007,100.37c10.98,4.65,26.11987,8.83,45.05005,12.46q2.75976.525,5.62988,1.04C136.42993,121.69,194.3999,126,256,126s119.57007-4.31,163.25-12.13q.65991-.12,1.32007-.24c20.96-3.81,37.55981-8.26,49.35986-13.26C475.51,98,492.5,90.81,492.5,77.5S475.51,57,469.92993,54.63ZM416.31006,99.16q-3.87012.69-7.89014,1.34C366.64014,107.29,312.92993,111,256,111c-58.89014,0-114.34009-3.97-156.69995-11.21-1.21-.21-2.42017-.42-3.61011-.63C38.32007,88.93,34.5,77.61,34.5,77.5s3.82007-11.43,61.18994-21.66c26.86011-4.8,59.29-8.24,94.7002-10.13a220.77862,220.77862,0,0,1,125.18994-.3c37.76,1.81,72.34985,5.36,100.73,10.43C473.67993,66.07,477.5,77.39,477.5,77.5S473.67993,88.93,416.31006,99.16Z"/></svg>