<svg xmlns="http://www.w3.org/2000/svg" data-name="Layer 1" viewBox="0 0 512 512"><circle cx="256" cy="256" r="219.5" fill="#fdd402"/><path fill="#fbbf13" d="M96.5,256C96.5,144.9519,178.969,53.17993,286,38.54956A221.36948,221.36948,0,0,0,256,36.5C134.77344,36.5,36.5,134.77344,36.5,256S134.77344,475.5,256,475.5a221.36948,221.36948,0,0,0,30-2.04956C178.969,458.82007,96.5,367.0481,96.5,256Z"/><path fill="#fff" d="M387.17,312.3501c-.47,3.00976-1.06,5.98974-1.75,8.93994a124.90847,124.90847,0,0,1-107.8,95.7998l-6.96.78028a125.11162,125.11162,0,0,1-126.47009-69.68018c-1.28992-2.6499-2.49-5.36987-3.58984-8.12988a124.8594,124.8594,0,0,1-4.93926-15.15167A10.016,10.016,0,0,1,148.21461,312.784,291.26737,291.26737,0,0,0,263.56,323.08008l1.47-.17017a291.03745,291.03745,0,0,0,108.659-35.45137,10.01638,10.01638,0,0,1,14.93356,9.03612A125.23329,125.23329,0,0,1,387.17,312.3501Z"/><path fill="#e0e0e2" d="M249.48,413.02a125.291,125.291,0,0,1-75.2901-64.83008c-1.28992-2.6499-2.49-5.36987-3.58984-8.12988a124.86923,124.86923,0,0,1-4.93921-15.15161,9.91117,9.91117,0,0,1,.91308-7.31494c-6.70312-1.52588-12.84619-3.16968-18.35937-4.80957a10.01592,10.01592,0,0,0-12.55371,12.12451,124.86923,124.86923,0,0,0,4.93921,15.15161c1.09985,2.76,2.29992,5.48,3.58984,8.12988A124.88707,124.88707,0,0,0,270.66,417.87012l.93628-.105A123.72,123.72,0,0,1,249.48,413.02Z"/><path fill="#74563a" d="M385.42,321.29A124.95464,124.95464,0,0,1,378.65,341.96C354.33,354.73,315.68,371.26,271.09,376.5a269.16622,269.16622,0,0,1-31.46,1.8c-33.17,0-63-5.71021-84.14-11.26a125.425,125.425,0,0,1-11.3-18.8501,5.67313,5.67313,0,0,1,.55.1499C164.2,354.45,215.29,367.96,269.33,361.6001c50.68-5.9502,93.42-27.3501,114.39-39.58008A7.64279,7.64279,0,0,1,385.42,321.29Z"/><circle cx="180" cy="194.652" r="60" fill="#fff"/><path fill="#e0e0e2" d="M150,194.65234a60.025,60.025,0,0,1,45-58.10962,60.00015,60.00015,0,1,0,0,116.219A60.02488,60.02488,0,0,1,150,194.65234Z"/><circle cx="180" cy="194.652" r="28" fill="#74563a"/><path fill="#674b34" d="M172,194.6521a28.00466,28.00466,0,0,1,18-26.154,28,28,0,1,0,0,52.3081A28.00516,28.00516,0,0,1,172,194.6521Z"/><circle cx="332" cy="214.652" r="30" fill="#74563a"/><path fill="#674b34" d="M322.00006 214.6521A30.00746 30.00746 0 0 1 342 186.36572a29.99989 29.99989 0 1 0 0 56.57251A30.00738 30.00738 0 0 1 322.00006 214.6521zM191.36 374.49a350.15622 350.15622 0 0 1-35.87-7.45 125.425 125.425 0 0 1-11.3-18.8501 5.67313 5.67313 0 0 1 .55.1499A330.28815 330.28815 0 0 0 178.91 356.98q3.045 5.205 6.58 10.06006Q188.28007 370.88013 191.36 374.49z"/><path fill="#674b34" d="M191.36,374.49a350.15622,350.15622,0,0,1-35.87-7.45,125.425,125.425,0,0,1-11.3-18.8501,5.67313,5.67313,0,0,1,.55.1499A330.28815,330.28815,0,0,0,178.91,356.98q3.045,5.205,6.58,10.06006Q188.28007,370.88013,191.36,374.49Z"/></svg>