<svg xmlns="http://www.w3.org/2000/svg" data-name="Layer 1" viewBox="0 0 512 512"><circle cx="256" cy="256" r="219.5" fill="#fdd402"/><path fill="#fbbf13" d="M96.5,256C96.5,144.9519,178.969,53.17993,286,38.54956A221.36948,221.36948,0,0,0,256,36.5C134.77344,36.5,36.5,134.77344,36.5,256S134.77344,475.5,256,475.5a221.36948,221.36948,0,0,0,30-2.04956C178.969,458.82007,96.5,367.0481,96.5,256Z"/><path fill="#74563a" d="M383.72754,236.97266a7.46719,7.46719,0,0,1-4.62891-1.603L346.6875,209.90381a7.50036,7.50036,0,0,1,0-11.79492l32.41113-25.46631a7.50014,7.50014,0,0,1,9.26758,11.79492l-24.90527,19.56885,24.90527,19.56836a7.50044,7.50044,0,0,1-4.63867,13.39795Z"/><path fill="#74563a" d="M318.916 237.66748a7.50044 7.50044 0 0 1-4.71582-13.33643l25.082-20.2456-25.00489-19.648a7.50014 7.50014 0 1 1 9.26758-11.79492l32.41016 25.46631a7.5 7.5 0 0 1 .07715 11.7334l-32.41016 26.16064A7.47463 7.47463 0 0 1 318.916 237.66748zM397.2168 156.39453a7.47678 7.47678 0 0 1-5.20606-2.102c-2.14355-2.06689-21.70215-20.05078-48.12988-14.9458a53.28326 53.28326 0 0 0-26.05176 13.50879 7.49986 7.49986 0 1 1-10.23437-10.96582 68.0237 68.0237 0 0 1 33.4414-17.27051c33.85157-6.54883 58.6709 16.25586 61.38867 18.87744a7.49976 7.49976 0 0 1-5.208 12.898zM185.79883 236.97266a7.46719 7.46719 0 0 1-4.62891-1.603l-32.41113-25.46582a7.50036 7.50036 0 0 1 0-11.79492l32.41113-25.46631a7.50014 7.50014 0 0 1 9.26758 11.79492l-24.90527 19.56885 24.90527 19.56836a7.50044 7.50044 0 0 1-4.63867 13.39795z"/><path fill="#74563a" d="M120.98633 237.66748a7.50061 7.50061 0 0 1-4.71582-13.33643l25.083-20.2456-25.00586-19.648a7.50013 7.50013 0 1 1 9.26757-11.79492l32.41114 25.46631a7.5 7.5 0 0 1 .07715 11.7334l-32.41114 26.16064A7.47463 7.47463 0 0 1 120.98633 237.66748zM199.28711 156.39453a7.47452 7.47452 0 0 1-5.207-2.103c-2.14258-2.06738-21.69434-20.05371-48.12891-14.94482A53.28848 53.28848 0 0 0 119.89941 152.856a7.50022 7.50022 0 0 1-10.23437-10.9668 68.03931 68.03931 0 0 1 33.44141-17.27c33.87011-6.54394 58.67382 16.25732 61.38964 18.87842a7.50024 7.50024 0 0 1-5.209 12.897z"/><circle cx="256" cy="347" r="75.5" fill="#74563a"/><path fill="#674b34" d="M210.5,347A75.52183,75.52183,0,0,1,271,272.99536a75.5,75.5,0,1,0,0,148.00928A75.52194,75.52194,0,0,1,210.5,347Z"/></svg>