<svg xmlns="http://www.w3.org/2000/svg" data-name="Layer 1" viewBox="0 0 512 512"><circle cx="256" cy="256" r="219.5" fill="#fdd402"/><path fill="#fbbf13" d="M96.5,256C96.5,144.95184,178.969,53.17993,286,38.5495A221.37921,221.37921,0,0,0,256,36.5C134.7735,36.5,36.5,134.7735,36.5,256S134.7735,475.5,256,475.5a221.37921,221.37921,0,0,0,30-2.0495C178.969,458.82007,96.5,367.04816,96.5,256Z"/><circle cx="165.5" cy="177.5" r="28" fill="#74563a"/><path fill="#674b34" d="M157.5,177.5a28.005,28.005,0,0,1,18-26.15405,28,28,0,1,0,0,52.3081A28.005,28.005,0,0,1,157.5,177.5Z"/><circle cx="346.5" cy="177.5" r="28" fill="#74563a"/><path fill="#674b34" d="M338.5,177.5a28.005,28.005,0,0,1,18-26.15405,28,28,0,1,0,0,52.3081A28.005,28.005,0,0,1,338.5,177.5Z"/><path fill="#74563a" d="M369.44526,298.39906a10.01636,10.01636,0,0,1,13.8308,10.6477A124.91258,124.91258,0,0,1,259.5,416.5h-7A124.80426,124.80426,0,0,1,128.72261,309.0462a10.016,10.016,0,0,1,13.8286-10.64822A291.21014,291.21014,0,0,0,256.02,321.5h1.48A291.06851,291.06851,0,0,0,369.44526,298.39906Z"/><path fill="#674b34" d="M232.18,405.96A124.71295,124.71295,0,0,1,158.1712,304.4892c-5.68669-2.03247-10.91061-4.09766-15.64164-6.10273A10.01011,10.01011,0,0,0,128.722,309.04178,124.89931,124.89931,0,0,0,252.5,416.5h7c3.878,0,7.71161-.187,11.49939-.53241A124.13117,124.13117,0,0,1,232.18,405.96Z"/><path fill="#e5303e" d="M310,345.5v106a54,54,0,0,1-108,0v-106Z"/><path fill="#b72732" d="M232,451.5v-106H202v106a53.99158,53.99158,0,0,0,69,51.87207A54.01657,54.01657,0,0,1,232,451.5Z"/><path fill="#b72732" d="M263.5,345.5v80a7.5,7.5,0,0,1-15,0v-80Z"/></svg>