<svg xmlns="http://www.w3.org/2000/svg" data-name="Layer 1" viewBox="0 0 512 512"><circle cx="256" cy="256" r="219.5" fill="#fdd402"/><path fill="#74563a" d="M213.5 212h-76a7.5 7.5 0 0 1 0-15h76a7.5 7.5 0 0 1 0 15zM374.5 212h-76a7.5 7.5 0 0 1 0-15h76a7.5 7.5 0 0 1 0 15zM346 360H166a7.5 7.5 0 0 1 0-15H346a7.5 7.5 0 0 1 0 15z"/><path fill="#fbbf13" d="M96.5,256C96.5,144.95184,178.969,53.17993,286,38.5495A221.37921,221.37921,0,0,0,256,36.5C134.77344,36.5,36.5,134.7735,36.5,256S134.77344,475.5,256,475.5a221.37921,221.37921,0,0,0,30-2.0495C178.969,458.82007,96.5,367.04816,96.5,256Z"/></svg>