<svg xmlns="http://www.w3.org/2000/svg" data-name="Layer 1" viewBox="0 0 512 512"><circle cx="256" cy="256" r="219.5" fill="#fdd402"/><path fill="#fbbf13" d="M86.5,256C86.5,143.2287,171.5481,50.33716,281,37.9256A221.7541,221.7541,0,0,0,256,36.5C134.77344,36.5,36.5,134.7735,36.5,256S134.77344,475.5,256,475.5a221.7541,221.7541,0,0,0,25-1.4256C171.5481,461.66284,86.5,368.7713,86.5,256Z"/><path fill="#74563a" d="M226.21484 379.15088a132.73321 132.73321 0 0 1-35.84961-4.9082 7.49991 7.49991 0 0 1 4.05469-14.44141 118.45391 118.45391 0 0 0 74.48535-3.59522 116.58063 116.58063 0 0 0 40.44922-26.4414l4.94922-4.94971a7.50024 7.50024 0 0 1 10.60742 10.60645l-4.94922 4.9497a131.485 131.485 0 0 1-45.624 29.81641A133.04175 133.04175 0 0 1 226.21484 379.15088zM121.65527 224.42822a7.50216 7.50216 0 0 1-6.63672-10.98291c1.61817-3.08838 16.72559-30.291 48.3252-34.41064a62.86159 62.86159 0 0 1 34.34863 5.40576 7.49982 7.49982 0 1 1-6.25586 13.63281 47.2248 47.2248 0 0 0-26.15234-4.16455c-24.08887 3.14063-35.73145 24.11817-36.98047 26.49951A7.4982 7.4982 0 0 1 121.65527 224.42822z"/><circle cx="189.838" cy="202.174" r="19.5" fill="#74563a"/><path fill="#74563a" d="M302.65527,224.42822a7.50216,7.50216,0,0,1-6.63672-10.98291c1.61817-3.08838,16.72559-30.291,48.3252-34.41064a62.85883,62.85883,0,0,1,34.34863,5.40576,7.49982,7.49982,0,1,1-6.25586,13.63281,47.22345,47.22345,0,0,0-26.15234-4.16455c-24.08887,3.14063-35.73145,24.11817-36.98047,26.49951A7.4982,7.4982,0,0,1,302.65527,224.42822Z"/><circle cx="370.838" cy="202.174" r="19.5" fill="#74563a"/></svg>