<svg xmlns="http://www.w3.org/2000/svg" data-name="Layer 1" viewBox="0 0 512 512"><circle cx="256" cy="256" r="219.5" fill="#fdd402"/><path fill="#fbbf13" d="M96.5,256C96.5,144.9519,178.969,53.17993,286,38.54956A221.36948,221.36948,0,0,0,256,36.5C134.77344,36.5,36.5,134.77344,36.5,256S134.77344,475.5,256,475.5a221.36948,221.36948,0,0,0,30-2.04956C178.969,458.82007,96.5,367.0481,96.5,256Z"/><path fill="#74563a" d="M152.6748 168.95313a72.47851 72.47851 0 0 1-29.54834-6.39844 7.50019 7.50019 0 0 1 6.50684-13.51563c2.42188 1.166 24.28174 11.05469 45.48731-.79883A47.22587 47.22587 0 0 0 193.62256 129.293a7.5 7.5 0 1 1 13.15527 7.207A62.84957 62.84957 0 0 1 182.438 161.334 60.34865 60.34865 0 0 1 152.6748 168.95313zM359.32568 168.95313A60.34464 60.34464 0 0 1 329.561 161.334 62.85363 62.85363 0 0 1 305.22217 136.5a7.5 7.5 0 1 1 13.15527-7.207 47.22982 47.22982 0 0 0 18.501 18.94726c21.20508 11.85254 43.06543 1.96485 45.48828.79883a7.50019 7.50019 0 0 1 6.50684 13.51563A72.48524 72.48524 0 0 1 359.32568 168.95313z"/><circle cx="175" cy="228.457" r="28" fill="#74563a"/><path fill="#674b34" d="M167,228.45654a28.00509,28.00509,0,0,1,18-26.154,28,28,0,1,0,0,52.30811A28.00535,28.00535,0,0,1,167,228.45654Z"/><circle cx="337" cy="228.457" r="28" fill="#74563a"/><path fill="#674b34" d="M329,228.45654a28.00509,28.00509,0,0,1,18-26.154,28,28,0,1,0,0,52.30811A28.00535,28.00535,0,0,1,329,228.45654Z"/><path fill="#74563a" d="M325.48828,371.11816a7.47411,7.47411,0,0,1-2.73828-.5205,181.92647,181.92647,0,0,0-66.748-12.64258c-.16211,0-.32031.001-.48242.001a181.81977,181.81977,0,0,0-65.28613,12.26661,7.50033,7.50033,0,0,1-5.40723-13.99219,197.48588,197.48588,0,0,1,143.4043.4043,7.50123,7.50123,0,0,1-2.74219,14.48339Z"/><path fill="#74563a" d="M330.50342 394.958a7.50185 7.50185 0 0 1-6.90186-4.5586 69.65189 69.65189 0 0 1-5.59961-25.76269 70.49478 70.49478 0 0 1 5.59864-29.12109 7.49986 7.49986 0 1 1 13.79882 5.88085 55.38373 55.38373 0 0 0-4.40136 22.87989 54.69607 54.69607 0 0 0 4.40039 20.23633 7.504 7.504 0 0 1-6.895 10.44531zM179.49365 394.957a7.5011 7.5011 0 0 1-6.05664-11.916 33.902 33.902 0 0 0 .00586-40.16211 7.5 7.5 0 1 1 12.11426-8.84571 48.90249 48.90249 0 0 1 .00586 57.83789A7.49075 7.49075 0 0 1 179.49365 394.957z"/></svg>