<svg xmlns="http://www.w3.org/2000/svg" data-name="Layer 1" viewBox="0 0 512 512"><circle cx="256" cy="256" r="219.5" fill="#fdd402"/><path fill="#fbbf13" d="M96.5,256C96.5,144.9519,178.969,53.17993,286,38.54956A221.36948,221.36948,0,0,0,256,36.5C134.7735,36.5,36.5,134.77344,36.5,256S134.7735,475.5,256,475.5a221.36948,221.36948,0,0,0,30-2.04956C178.969,458.82007,96.5,367.0481,96.5,256Z"/><circle cx="165.5" cy="194.5" r="28" fill="#74563a"/><path fill="#674b34" d="M157.5,194.5a28.00479,28.00479,0,0,1,18-26.15405,28,28,0,1,0,0,52.3081A28.00516,28.00516,0,0,1,157.5,194.5Z"/><circle cx="346.5" cy="194.5" r="28" fill="#74563a"/><path fill="#674b34" d="M338.5,194.5a28.00479,28.00479,0,0,1,18-26.15405,28,28,0,1,0,0,52.3081A28.00516,28.00516,0,0,1,338.5,194.5Z"/><circle cx="256" cy="344.5" r="75.5" fill="#74563a"/><path fill="#674b34" d="M210.5,344.5A75.52177,75.52177,0,0,1,271,270.49536a75.5,75.5,0,1,0,0,148.00928A75.52177,75.52177,0,0,1,210.5,344.5Z"/></svg>